<?xml version="1.0" standalone="no"?>
<!DOCTYPE svg PUBLIC "-//W3C//DTD SVG 20010904//EN"
 "http://www.w3.org/TR/2001/REC-SVG-20010904/DTD/svg10.dtd">
<svg version="1.0" xmlns="http://www.w3.org/2000/svg"
 width="1024.000000pt" height="1024.000000pt" viewBox="0 0 1024.000000 1024.000000"
 preserveAspectRatio="xMidYMid meet">

<g transform="translate(0.000000,1024.000000) scale(0.100000,-0.100000)"
fill="#000000" stroke="none">
<path d="M4979 9426 c-120 -34 -230 -126 -364 -307 l-78 -104 -156 0 c-124 0
-169 -4 -219 -19 -59 -18 -66 -18 -96 -3 -137 65 -387 41 -518 -49 -139 -95
-213 -222 -262 -444 l-5 -26 -194 4 c-283 6 -431 -20 -600 -104 -297 -148
-517 -457 -578 -811 -9 -55 -23 -87 -74 -168 -34 -55 -120 -199 -192 -320 -71
-121 -186 -314 -254 -430 -178 -301 -211 -372 -260 -550 -18 -68 -22 -301 -7
-388 l14 -77 -35 -18 c-90 -44 -98 -118 -29 -251 l46 -87 -39 -47 c-52 -66
-73 -133 -66 -213 7 -75 33 -129 95 -202 117 -139 385 -280 550 -291 6 -1 12
-9 12 -18 0 -15 -2 -16 -10 -3 -7 12 -10 11 -16 -5 -5 -11 -3 -20 4 -23 7 -2
12 -8 12 -14 0 -16 -141 -2 -229 22 -109 31 -196 76 -262 137 -64 59 -86 64
-107 21 -15 -32 -5 -62 38 -112 68 -77 218 -144 387 -172 62 -10 103 -22 111
-32 6 -9 12 -11 12 -5 0 6 7 14 16 17 11 4 15 2 11 -7 -3 -8 3 -13 14 -14 10
-1 19 2 19 7 0 12 37 0 51 -16 8 -10 8 -14 0 -14 -6 0 -11 -5 -11 -11 0 -6 7
-8 16 -5 8 3 12 2 9 -3 -3 -6 -14 -9 -25 -8 -10 1 -16 5 -14 9 3 4 0 8 -5 8
-6 0 -11 -4 -11 -10 0 -13 -128 -13 -225 1 -43 6 -109 22 -149 36 -103 36
-118 38 -140 14 -24 -26 -15 -63 22 -89 50 -36 178 -65 377 -86 22 -3 42 -5
45 -6 3 0 -2 -6 -11 -13 -18 -14 -32 -47 -20 -47 5 0 11 9 14 20 6 23 27 27
27 6 0 -8 5 -18 12 -22 8 -5 9 -2 5 9 -3 10 -2 17 2 17 10 0 21 -24 21 -45 0
-20 -59 -25 -70 -6 -8 14 -9 14 -10 1 0 -13 -14 -14 -97 -8 -53 3 -106 9 -119
12 -49 13 -75 -60 -31 -88 27 -18 266 -53 380 -56 4 0 7 -5 7 -11 0 -6 -9 -9
-20 -6 -11 3 -20 0 -20 -5 0 -6 -6 -5 -15 2 -13 11 -14 10 -9 -5 6 -15 4 -16
-14 -6 -29 16 -36 14 -18 -5 20 -20 21 -38 0 -30 -8 3 -12 2 -9 -4 3 -6 15
-10 26 -10 11 0 17 -5 14 -10 -8 -13 -160 -6 -245 11 -69 13 -106 7 -115 -21
-19 -59 27 -85 186 -105 68 -9 135 -18 149 -20 14 -2 33 -4 42 -4 10 -1 20
-12 24 -26 3 -14 12 -25 20 -25 17 0 18 17 2 23 -7 2 -9 8 -5 13 12 13 28 -18
22 -44 -4 -17 -2 -22 6 -16 8 4 9 3 5 -4 -8 -13 -110 -8 -210 9 -74 13 -104 6
-112 -26 -14 -57 21 -80 146 -95 134 -16 138 -17 155 -50 22 -43 20 -70 -7
-70 -13 0 -40 -5 -61 -11 -31 -8 -42 -18 -57 -51 -39 -88 30 -178 138 -178 45
0 46 -2 58 -85 21 -157 114 -379 233 -558 273 -412 651 -573 1025 -436 44 16
81 29 82 29 2 0 4 -10 6 -23 3 -22 5 -22 153 -21 210 2 483 44 589 90 46 20
20 17 -97 -11 -213 -50 -535 -71 -569 -37 -9 9 -7 12 10 12 12 0 22 5 22 10 0
6 26 10 58 10 184 0 406 37 845 139 26 6 60 10 75 9 15 -1 33 2 40 6 7 4 20 2
28 -5 12 -10 13 -9 7 7 -6 16 -4 17 9 7 8 -7 18 -10 21 -6 4 3 7 1 7 -6 0 -6
-8 -15 -17 -18 -10 -4 -27 -15 -38 -25 -11 -11 -31 -25 -45 -32 -14 -7 -56
-31 -95 -52 -222 -124 -495 -201 -794 -223 -103 -7 -127 -12 -143 -29 -30 -29
-26 -71 8 -100 28 -24 32 -25 139 -19 241 14 512 85 840 221 83 35 182 73 220
86 39 12 74 26 80 31 5 5 15 9 23 9 12 0 12 -2 1 -17 -13 -15 -11 -15 19 1 17
9 32 21 32 26 0 6 7 10 15 10 11 0 15 -12 16 -47 1 -54 6 -48 11 12 3 32 8 41
26 43 16 3 22 -2 22 -17 0 -11 4 -22 8 -25 5 -3 6 8 4 25 -4 30 11 40 22 13
14 -37 4 -53 -61 -97 -313 -209 -707 -366 -1034 -411 -55 -8 -76 -22 -84 -58
-5 -19 -1 -32 14 -47 34 -34 162 -26 373 23 181 43 425 143 754 310 141 71
211 101 216 93 3 -6 5 -14 2 -18 -2 -4 0 -10 6 -14 5 -3 10 -10 10 -14 0 -15
-260 -211 -279 -211 -5 0 -11 -4 -13 -8 -5 -12 -218 -143 -370 -226 -75 -41
-108 -76 -108 -115 0 -59 66 -99 131 -81 109 32 517 285 703 437 43 35 110 72
119 66 6 -3 7 -1 3 5 -9 15 48 44 70 35 11 -4 15 -3 10 5 -3 6 3 14 16 18 13
4 26 12 30 18 5 7 8 6 8 -4 0 -8 -9 -23 -20 -35 -10 -11 -48 -51 -82 -89 -54
-59 -185 -184 -410 -392 -52 -47 -58 -58 -58 -92 0 -28 7 -47 26 -67 23 -24
31 -27 74 -23 40 4 63 15 123 60 142 108 295 253 696 662 109 111 178 175 187
172 8 -3 14 1 14 10 0 12 7 15 25 12 13 -3 26 0 28 6 2 6 7 9 10 6 3 -3 -1
-14 -9 -25 -12 -16 -17 -17 -23 -6 -6 9 -11 10 -15 2 -4 -6 -2 -11 3 -11 22 0
9 -25 -73 -134 -103 -137 -204 -257 -381 -455 -74 -84 -143 -164 -151 -177
-23 -34 -11 -86 27 -118 78 -66 138 -19 518 410 108 122 234 265 281 320 142
164 245 277 255 281 6 1 18 -11 27 -27 16 -28 16 -32 2 -48 -9 -9 -30 -40 -47
-69 -57 -94 -218 -325 -340 -488 -132 -176 -135 -180 -266 -344 -82 -103 -91
-119 -91 -156 0 -51 28 -91 69 -100 18 -4 182 24 447 75 644 126 684 136 782
199 58 37 96 82 200 237 79 118 82 122 129 133 76 20 182 81 250 144 55 52
133 153 146 189 3 10 9 9 23 -4 83 -73 245 -61 304 23 28 39 39 130 21 181
-11 32 -11 32 81 119 105 97 204 229 255 337 19 40 49 90 67 110 84 95 169
256 217 414 18 59 35 105 38 102 3 -3 8 -144 11 -312 l5 -307 56 -3 c37 -2 59
2 67 10 7 9 13 135 18 366 4 199 11 355 16 359 6 3 14 1 19 -4 5 -5 12 -135
14 -288 4 -206 9 -281 18 -287 16 -10 88 -10 104 0 10 6 15 91 20 333 3 179 3
337 -1 352 l-6 27 -503 1 c-360 0 -513 4 -542 13 -53 16 -84 58 -218 303 -157
288 -286 548 -355 714 -182 437 -506 1306 -500 1338 3 14 28 17 160 21 l158 5
30 30 c18 19 73 123 144 275 209 450 315 665 344 700 l29 35 404 3 c222 1 414
0 426 -3 32 -8 53 -33 53 -63 0 -16 -154 -336 -365 -757 -201 -401 -367 -741
-370 -755 -4 -18 7 -46 38 -100 91 -156 355 -585 518 -841 93 -146 169 -270
169 -276 0 -55 -216 -82 -388 -47 -105 21 -261 97 -337 165 -158 140 -276 324
-384 597 -35 87 -58 104 -82 61 -27 -51 104 -353 229 -528 116 -163 236 -267
386 -336 126 -58 192 -70 371 -69 141 1 172 4 260 28 112 30 290 112 386 177
126 84 249 210 310 315 26 46 34 52 71 58 135 22 237 145 238 288 0 57 -4 71
-26 97 -14 17 -42 35 -62 41 -23 6 -248 10 -604 10 -552 0 -668 6 -668 32 0 6
-7 8 -15 4 -8 -3 -15 -2 -15 3 0 18 111 21 678 21 565 0 587 1 627 20 98 48
100 196 4 287 -153 145 -457 54 -574 -170 -29 -56 -31 -57 -72 -57 -38 0 -43
3 -43 23 0 46 62 151 129 218 111 111 212 149 398 149 135 0 136 1 134 126 -1
74 1 83 19 89 32 10 60 54 60 96 0 87 -118 136 -224 93 -44 -17 -3 15 51 41
107 50 163 125 163 220 0 85 -54 170 -126 201 l-31 13 -6 113 c-6 133 -24 204
-77 315 -103 217 -256 363 -468 446 -67 26 -93 31 -204 35 -92 3 -158 0 -240
-13 -191 -29 -303 -8 -441 82 -74 49 -151 134 -185 205 -29 60 -44 141 -32
174 13 34 13 34 -10 34 -12 0 -28 13 -39 31 l-19 31 -17 -46 c-13 -34 -16 -60
-11 -100 5 -48 3 -58 -18 -83 -99 -119 -103 -291 -10 -455 20 -35 40 -69 46
-76 7 -8 1 -7 -18 3 -22 11 -31 12 -43 2 -12 -10 -14 -9 -8 5 3 10 1 21 -6 25
-18 12 -47 60 -47 78 0 10 -5 13 -12 9 -7 -5 -9 -2 -5 9 3 9 -2 31 -11 49 -14
26 -17 59 -16 163 1 112 5 142 28 215 30 92 90 211 140 275 87 112 208 184
324 193 68 4 172 -12 172 -28 0 -4 -22 -10 -49 -14 -118 -16 -244 -77 -307
-148 -25 -28 -35 -33 -49 -26 -11 7 -25 7 -41 -1 -31 -14 -31 -31 1 -31 18 0
26 -7 31 -25 3 -14 8 -25 10 -25 3 0 32 29 64 64 114 121 328 199 420 153 38
-19 70 -74 70 -121 l0 -40 -43 42 c-73 71 -103 44 -52 -47 14 -24 24 -45 22
-47 -2 -2 -23 18 -46 46 -41 49 -63 60 -76 40 -4 -6 5 -31 20 -56 15 -25 25
-47 23 -49 -2 -2 -26 16 -52 41 -65 59 -83 46 -42 -29 l30 -52 -42 38 c-68 60
-85 42 -31 -32 17 -24 29 -44 27 -46 -2 -2 -23 10 -47 26 -69 48 -95 23 -41
-41 44 -51 38 -72 -8 -27 -21 20 -43 37 -50 37 -15 0 -16 -26 -2 -35 6 -3 17
-20 25 -36 l16 -29 -37 19 c-42 23 -74 14 -74 -19 0 -44 52 -149 96 -193 55
-56 88 -66 120 -36 l23 22 47 -32 c82 -54 173 -54 281 -1 66 33 93 65 112 134
14 52 50 102 86 120 39 19 146 66 151 66 2 0 4 -16 4 -36 0 -49 -40 -88 -100
-98 -58 -9 -70 -21 -70 -65 0 -87 118 -126 207 -68 54 36 83 92 83 160 0 127
-86 186 -210 142 -52 -18 -180 -20 -202 -2 -12 8 -20 42 -28 112 -12 106 -38
177 -83 231 -31 37 -140 91 -200 100 -56 9 -70 17 -118 69 -23 25 -67 57 -98
72 -77 38 -193 40 -261 4 -94 -50 -213 -151 -380 -325 -105 -109 -112 -113
-132 -78 -16 27 -15 30 44 132 33 57 71 133 86 169 14 37 57 113 94 171 38 58
86 139 106 179 35 71 37 80 37 175 0 90 -3 107 -27 156 -77 155 -235 221 -416
172 l-73 -20 -33 67 c-45 87 -92 140 -157 176 -53 29 -57 30 -194 30 -121 -1
-148 -4 -195 -23 -77 -31 -173 -106 -297 -232 -59 -60 -110 -107 -114 -105 -3
3 -7 37 -7 77 -3 180 -93 350 -224 420 -42 23 -47 23 -403 25 -269 1 -372 -2
-406 -11z m793 -123 c47 -40 56 -51 88 -118 41 -83 55 -181 42 -280 -6 -42
-14 -81 -19 -86 -5 -5 -34 -4 -67 3 -57 12 -59 13 -82 66 -13 30 -21 59 -17
65 3 5 1 7 -5 3 -6 -3 -14 -1 -18 5 -3 6 -2 14 4 18 6 3 15 19 21 34 9 23 7
29 -9 39 -11 7 -20 16 -20 21 0 4 4 6 9 2 18 -11 22 16 7 47 -19 38 -20 51 -3
45 6 -2 12 -12 12 -22 0 -10 6 -20 13 -23 7 -2 10 2 6 12 -4 11 -1 16 10 16
20 0 21 26 2 33 -11 4 -13 1 -9 -11 4 -13 0 -11 -16 5 -26 27 -26 33 -1 33 11
0 20 5 20 10 0 6 -4 10 -10 10 -5 0 -10 5 -10 11 0 6 9 8 23 4 17 -5 19 -4 7
5 -13 9 -13 12 3 24 11 8 14 17 8 20 -11 7 -49 -29 -61 -59 -8 -18 -9 -17 -9
6 -1 15 6 32 14 39 8 7 15 21 15 31 0 26 13 24 52 -8z m-689 -16 c-61 -67 -93
-147 -59 -147 8 0 29 18 47 41 38 48 81 76 172 112 95 38 109 36 66 -10 -61
-65 -169 -210 -265 -357 -85 -131 -113 -173 -179 -266 -13 -19 -30 -48 -38
-65 -8 -16 -26 -41 -41 -54 -14 -14 -26 -31 -26 -39 0 -7 -12 -26 -27 -41 -16
-15 -34 -40 -42 -54 -9 -18 -23 -27 -38 -27 -13 0 -23 -4 -23 -10 0 -5 5 -10
12 -10 6 0 4 -7 -5 -18 -10 -10 -17 -24 -17 -30 0 -7 -9 -12 -20 -12 -13 0
-20 -7 -20 -19 0 -11 -9 -23 -20 -26 -11 -3 -20 -11 -20 -17 0 -5 -6 -8 -12
-6 -16 6 -19 110 -4 120 8 5 7 8 -1 8 -9 0 -13 18 -13 54 0 33 -5 56 -12 58
-15 5 40 108 58 108 10 0 13 -15 11 -60 -2 -35 1 -59 6 -57 6 2 9 40 8 85 -3
96 -12 77 211 415 145 220 221 316 269 339 41 20 49 15 22 -15z m615 13 c-7
-11 -20 -20 -28 -20 -11 1 -8 6 9 20 30 25 34 25 19 0z m-748 -9 c0 -5 -17
-31 -37 -58 -20 -26 -137 -201 -258 -389 -271 -417 -295 -449 -405 -547 -57
-52 -113 -84 -170 -100 -44 -12 -140 -16 -160 -6 -8 4 -34 13 -58 20 -24 7
-45 15 -47 18 -1 3 36 6 83 6 199 1 303 88 571 480 315 459 332 481 414 547
49 38 67 46 67 29z m644 -64 c27 -34 30 -45 29 -99 -1 -33 -4 -63 -7 -65 -3
-3 -19 6 -36 20 -16 14 -39 29 -50 32 -11 4 -18 9 -16 13 2 4 -7 8 -20 8 -21
2 -67 34 -48 34 4 0 -1 7 -12 15 -17 13 -17 14 -2 15 10 0 23 9 30 20 7 11 18
20 24 20 16 0 24 -36 11 -49 -8 -8 -7 -11 2 -11 7 0 9 -4 6 -10 -3 -6 1 -7 10
-3 13 5 14 7 3 14 -8 6 -9 12 -3 17 13 9 16 62 3 62 -5 0 -6 -5 -2 -12 4 -7 3
-8 -4 -4 -23 14 -12 27 19 24 23 -2 41 -14 63 -41z m1173 -68 c74 -27 131
-124 173 -294 16 -60 34 -154 40 -208 21 -162 2 -486 -30 -520 -4 -5 -45 30
-91 78 -204 213 -472 391 -781 520 -38 15 -68 32 -68 37 0 13 38 44 81 67 19
11 41 26 47 34 20 24 91 5 124 -32 35 -39 35 -44 1 -71 -24 -19 -28 -20 -31
-6 -4 19 -19 21 -24 4 -4 -12 -42 -6 -68 12 -13 9 -13 11 0 20 8 5 10 10 4 10
-5 0 -19 -6 -30 -14 -13 -10 -23 -11 -32 -4 -7 6 -15 8 -19 4 -8 -7 -13 -4 70
-44 69 -33 116 -39 161 -22 32 12 44 -4 22 -29 -16 -18 -14 -20 30 -50 26 -17
52 -31 57 -31 18 0 -2 104 -36 191 -18 47 -52 113 -75 146 -44 65 -44 84 1 54
40 -26 83 -89 115 -167 17 -43 33 -69 42 -68 8 1 43 8 78 15 78 16 91 6 61
-53 -25 -48 -44 -56 -72 -31 -34 31 -67 47 -66 31 1 -37 27 -160 35 -167 5 -4
46 -34 92 -66 61 -42 87 -54 95 -46 17 17 -8 267 -37 376 -32 119 -78 219
-127 278 -39 46 -40 47 -15 47 54 0 125 -100 175 -249 24 -70 56 -244 67 -363
l7 -78 81 1 c126 1 120 -4 112 103 -7 95 -21 186 -37 248 l-9 36 -60 -5 c-45
-4 -65 -2 -85 11 -51 33 -25 59 75 72 52 7 56 10 41 33 -9 13 -23 13 -112 -5
-22 -4 -28 0 -39 28 -8 18 -26 52 -42 75 -15 23 -28 46 -28 51 0 17 49 44 92
51 4 0 19 -4 35 -10z m-1065 -151 c-9 -9 -12 -7 -12 12 0 19 3 21 12 12 9 -9
9 -15 0 -24z m-272 12 c0 -5 -7 -7 -15 -4 -8 4 -15 8 -15 10 0 2 7 4 15 4 8 0
15 -4 15 -10z m71 -16 c47 -23 97 -71 120 -117 l20 -38 -26 6 c-14 3 -37 7
-51 10 -15 4 -24 8 -21 11 3 3 -4 15 -15 26 -11 11 -22 17 -25 14 -4 -3 -13 3
-20 14 -8 11 -17 18 -21 16 -4 -2 -15 1 -24 8 -11 8 -14 17 -7 27 8 12 10 12
19 -1 13 -20 13 -4 0 21 -14 24 4 25 51 3z m-90 -17 c-13 -13 -26 -3 -16 12 3
6 11 8 17 5 6 -4 6 -10 -1 -17z m-954 -43 c45 -12 11 -26 -46 -19 -31 4 -83 9
-116 10 -86 4 -95 7 -50 16 42 8 174 4 212 -7z m2084 -10 c24 -22 22 -82 -3
-98 -24 -15 -73 4 -74 29 -1 11 -2 29 -3 40 -1 17 -3 18 -12 5 -9 -12 -10 -12
-5 4 4 11 1 23 -6 29 -9 6 -8 7 5 3 9 -3 17 -1 17 5 0 15 59 3 81 -17z m-1209
-5 c35 -11 74 -29 88 -40 l25 -20 -124 4 c-105 4 -125 7 -134 22 -10 19 4 32
48 47 30 9 30 9 97 -13z m2001 -26 c100 -69 136 -243 68 -332 -18 -23 -18 -23
-10 35 22 149 -31 252 -144 283 -47 14 -80 9 -184 -24 -20 -6 -23 -4 -23 18 0
21 7 28 48 41 94 30 182 23 245 -21z m-3445 25 c7 -7 12 -22 12 -34 0 -20 -4
-21 -44 -17 -58 7 -137 -12 -211 -50 -63 -33 -175 -137 -175 -162 0 -8 -4 -15
-10 -15 -5 0 -10 -6 -10 -12 0 -7 -8 -22 -16 -33 -15 -19 -16 -18 -9 15 21
106 96 207 194 259 95 50 241 77 269 49z m148 -27 c107 -51 195 -154 217 -256
5 -23 1 -19 -19 20 -52 97 -178 199 -271 220 -35 7 -40 14 -21 33 17 17 26 15
94 -17z m-164 -87 c9 -11 43 -31 75 -42 61 -22 135 -78 154 -115 8 -15 0 -11
-27 14 -86 79 -166 107 -243 83 -65 -19 -97 -17 -121 8 -18 20 -19 23 -4 39
24 26 115 52 139 40 6 -3 18 -15 27 -27z m3390 -34 c34 -42 38 -85 22 -219
-22 -179 -64 -333 -122 -454 -27 -56 -56 -111 -64 -121 -14 -18 -16 -17 -43
18 l-28 36 16 58 c41 146 57 399 37 576 -8 63 -7 93 0 100 39 40 152 43 182 6z
m-394 -2 c19 -19 14 -46 -13 -64 -20 -13 -28 -14 -40 -4 -15 13 -21 61 -8 73
11 11 48 8 61 -5z m-3194 -22 c9 -14 6 -21 -14 -37 -60 -47 -110 -101 -110
-119 0 -6 -7 -13 -15 -16 -8 -4 -15 -16 -15 -28 0 -12 -7 -31 -15 -42 -15 -18
-15 -15 -10 30 9 70 48 147 101 196 47 43 60 46 78 16z m1638 -38 c18 -15 48
-59 48 -70 0 -5 -12 -8 -26 -8 -15 0 -45 -5 -67 -12 -35 -11 -41 -10 -54 8
-24 34 -27 64 -7 79 24 18 85 19 106 3z m268 -28 c30 -21 100 -148 100 -181 0
-13 -13 -20 -50 -28 -28 -6 -55 -11 -61 -11 -5 0 -25 25 -44 55 -20 30 -49 71
-66 90 -34 38 -32 47 15 76 40 24 71 24 106 -1z m-1871 -3 c-21 -17 -73 -95
-89 -135 -7 -19 -13 -57 -12 -85 1 -45 0 -49 -9 -27 -13 32 -4 122 18 163 17
34 81 97 98 97 6 0 3 -6 -6 -13z m2109 -9 c25 -28 61 -105 62 -133 0 -18 -7
-20 -60 -20 l-61 0 -44 81 c-24 45 -41 84 -38 88 4 3 32 6 63 6 46 0 61 -4 78
-22z m-690 -46 c2 -7 -8 -12 -25 -12 -15 0 -44 -4 -62 -10 -43 -12 -46 -9 -21
18 11 12 20 24 20 27 0 3 6 12 13 20 10 11 17 10 41 -9 17 -13 32 -28 34 -34z
m-1170 11 c67 -31 111 -116 98 -188 -4 -20 -22 -53 -43 -75 -121 -135 -359
-22 -314 148 16 59 63 109 120 126 49 16 87 13 139 -11z m2047 -33 c3 -5 -3
-10 -14 -10 -12 0 -21 5 -21 10 0 6 6 10 14 10 8 0 18 -4 21 -10z m-596 -31
c18 -20 71 -137 71 -158 0 -5 -21 -11 -47 -15 -27 -3 -60 -8 -75 -11 -20 -4
-28 0 -33 15 -3 11 -11 20 -17 20 -7 0 -7 5 1 14 9 11 7 15 -9 19 -11 3 -20 9
-19 14 1 4 -5 25 -14 45 -22 50 -22 55 11 66 49 19 109 14 131 -9z m-231 -27
c31 -56 71 -187 65 -212 -5 -17 -2 -21 13 -18 21 3 59 -62 42 -73 -5 -3 -3 -9
6 -12 9 -4 16 -10 15 -14 -1 -4 0 -10 1 -13 1 -3 4 -18 6 -34 5 -26 3 -28 -10
-17 -9 7 -13 17 -10 22 3 5 -3 9 -13 10 -10 0 -13 3 -5 6 27 11 10 21 -29 17
-34 -3 -40 -1 -35 12 5 12 1 14 -16 8 -17 -5 -20 -3 -15 10 4 10 1 16 -8 16
-8 0 -15 8 -15 18 0 10 -6 24 -12 30 -10 10 -10 15 2 22 8 5 11 10 5 10 -5 0
-3 5 5 10 10 7 11 10 2 10 -7 0 -15 -7 -18 -15 -4 -8 -10 -15 -15 -15 -14 0
-11 28 4 34 6 3 1 3 -12 0 -19 -5 -23 -3 -18 10 4 11 1 16 -10 16 -13 0 -14 3
-5 12 15 15 16 32 1 23 -11 -8 -40 25 -33 37 3 5 0 8 -6 8 -7 0 -9 7 -6 16 3
8 2 13 -3 10 -5 -3 -8 8 -7 24 2 39 38 64 97 69 8 0 25 -16 37 -37z m949 -57
c27 -48 58 -174 45 -187 -5 -5 -31 -11 -58 -14 l-50 -6 -13 43 c-7 24 -29 74
-47 111 -19 37 -34 70 -34 72 0 10 65 25 100 23 29 -2 38 -8 57 -42z m149 -4
c34 -16 64 -33 68 -39 3 -5 -11 -13 -32 -17 -20 -3 -46 -9 -58 -11 -23 -6 -48
24 -60 70 -8 34 5 34 82 -3z m-361 -23 c26 -24 60 -106 71 -175 6 -39 5 -40
-26 -47 -18 -3 -46 -6 -61 -6 -33 0 -32 -2 -74 130 -15 47 -30 90 -32 97 -11
29 89 29 122 1z m-928 -79 c38 -75 40 -83 25 -100 -20 -23 -27 -18 -13 9 14
26 2 36 -16 14 -14 -16 -14 -16 -9 1 3 9 9 23 12 31 7 17 -30 28 -45 13 -8 -8
-11 -7 -11 5 0 8 7 21 15 28 8 7 15 17 15 23 0 7 -4 7 -12 -1 -17 -17 -28 -15
-21 5 4 11 3 14 -5 9 -7 -4 -12 -2 -12 4 0 7 7 10 15 7 8 -4 17 -2 20 3 4 6 1
10 -4 10 -6 0 -11 5 -11 10 0 27 20 2 57 -71z m-494 17 c0 -30 -5 -51 -14 -57
-12 -7 -11 -9 1 -9 12 0 16 -11 16 -44 0 -35 -5 -47 -21 -55 -17 -9 -16 -10 8
-5 34 8 34 0 1 -43 -28 -38 -44 -42 -44 -13 0 11 6 20 13 20 7 0 8 3 2 8 -17
11 -12 203 5 230 22 33 33 22 33 -32z m1241 16 c8 -15 22 -57 31 -92 9 -36 18
-73 21 -82 4 -12 0 -18 -13 -19 -17 -1 -17 -2 0 -6 24 -6 54 -84 71 -180 1 -7
5 -16 9 -19 12 -12 8 -24 -7 -24 -8 0 -18 -5 -21 -10 -4 -6 -3 -10 2 -9 18 3
33 -1 33 -10 0 -5 -8 -8 -17 -6 -10 2 -27 4 -37 4 -19 1 -19 2 -1 21 18 20 18
21 -1 14 -10 -4 -24 -13 -31 -21 -8 -11 -13 -11 -19 -2 -4 7 0 17 9 24 24 17
21 23 -8 17 -14 -2 -25 0 -26 4 -3 36 -12 69 -18 74 -12 8 -51 100 -51 120 0
10 -5 20 -11 22 -6 2 -11 16 -11 31 0 15 -4 27 -7 27 -13 0 -43 112 -34 121 8
8 74 25 110 28 7 1 19 -12 27 -27z m-2889 -50 c-6 -5 -41 -19 -80 -31 -419
-138 -670 -452 -726 -905 -31 -248 40 -679 157 -963 47 -114 81 -182 155 -305
32 -55 59 -103 59 -106 0 -14 -73 78 -135 168 -138 205 -227 458 -277 790 -24
161 -21 416 7 540 96 438 367 728 751 804 84 17 101 19 89 8z m2673 -19 c6
-16 13 -35 14 -43 2 -8 5 -17 8 -20 8 -8 43 -141 46 -176 2 -26 -1 -33 -19
-38 -30 -7 -36 3 -12 21 19 15 19 15 -6 9 -18 -4 -31 -1 -39 9 -14 16 -34 10
-24 -7 5 -7 2 -8 -5 -3 -9 5 -10 10 -2 18 16 16 13 27 -4 21 -8 -4 -15 -1 -15
4 0 6 -5 23 -12 39 -6 15 -11 31 -10 36 1 4 -4 7 -10 7 -9 0 -8 4 2 10 13 8
12 10 -3 10 -10 0 -16 4 -13 9 4 5 1 11 -4 13 -6 2 -12 13 -13 26 0 12 -5 22
-9 22 -4 0 -8 10 -8 21 0 16 5 20 20 16 11 -3 20 -1 20 3 0 10 24 17 61 19 20
1 29 -6 37 -26z m-1093 -80 c-1 -76 -4 -97 -15 -99 -8 -1 -23 -5 -32 -9 -25
-10 -22 0 8 30 14 14 23 29 19 33 -3 4 -15 -4 -25 -18 -16 -21 -20 -22 -20 -7
0 10 12 29 27 43 l28 26 -27 -7 c-24 -6 -26 -5 -23 21 1 16 8 30 15 32 6 2 15
15 20 28 18 46 25 23 25 -73z m1964 71 c21 -27 36 -89 47 -196 l6 -68 -50 0
c-56 0 -51 -5 -72 87 -6 28 -25 72 -41 98 -16 25 -29 50 -29 55 0 15 69 46
107 49 6 1 21 -11 32 -25z m-3134 -30 c11 -1 32 -3 47 -3 15 -1 33 -8 42 -16
8 -8 22 -12 31 -9 12 5 9 -6 -12 -40 -26 -42 -31 -46 -67 -46 l-39 0 24 27
c13 15 31 33 39 39 8 7 12 16 8 20 -10 9 -91 -73 -84 -84 3 -5 -22 -12 -55
-15 -101 -11 -219 -46 -326 -97 -116 -55 -172 -91 -259 -167 -37 -32 -71 -53
-85 -53 -13 0 -31 -5 -39 -11 -11 -7 -6 -9 18 -4 31 6 33 5 23 -12 -5 -11 -17
-26 -26 -33 -26 -21 -100 -121 -120 -160 -9 -19 -29 -51 -43 -69 -14 -19 -27
-42 -27 -51 -1 -9 -10 -30 -21 -46 -28 -41 -103 -298 -105 -363 -1 -25 -1 -25
-7 -3 -4 12 -4 73 -1 135 3 62 5 113 4 115 -1 1 -10 -1 -19 -4 -14 -5 -15 -9
-4 -16 10 -7 10 -11 -4 -22 -18 -14 -25 -32 -9 -22 12 8 19 -13 13 -41 -4 -19
-7 -21 -18 -12 -11 9 -14 7 -14 -10 0 -13 6 -21 17 -21 15 0 15 -1 0 -18 -21
-23 -21 -32 -3 -32 9 0 12 -7 9 -18 -2 -10 -11 -19 -18 -19 -18 0 -30 160 -21
279 8 109 55 299 95 383 136 291 428 483 796 524 68 8 186 6 260 -5z m3288
-10 c54 -27 127 -81 127 -92 0 -4 -38 -7 -85 -7 l-85 0 -16 50 c-8 28 -17 56
-19 63 -7 19 21 14 78 -14z m-3122 -62 c-27 -39 -48 -55 -55 -44 -7 12 44 70
62 71 9 1 7 -8 -7 -27z m39 9 c0 -5 -7 -12 -16 -15 -14 -5 -15 -4 -4 9 14 17
20 19 20 6z m875 -43 c-1 -29 -4 -55 -5 -58 -1 -3 -2 -9 -1 -14 3 -16 -10 -46
-20 -46 -6 0 -7 9 -4 20 4 11 2 20 -4 20 -6 0 -11 -4 -11 -8 0 -5 -7 -17 -15
-28 -9 -10 -4 5 11 34 20 41 24 56 15 62 -10 5 -8 9 4 14 9 3 13 11 10 16 -8
13 1 40 14 40 5 0 8 -24 6 -52z m1879 41 c25 -12 36 -43 51 -146 6 -41 6 -42
-27 -47 -85 -14 -81 -16 -106 44 -15 34 -42 119 -42 130 0 10 47 28 77 29 12
1 33 -4 47 -10z m-198 -47 c12 -8 30 -55 72 -197 28 -92 34 -117 47 -185 3
-13 -1 -28 -8 -32 -8 -5 -7 -8 6 -8 9 0 17 -7 17 -15 0 -9 -6 -12 -15 -9 -10
4 -15 0 -15 -11 0 -9 5 -13 10 -10 6 3 10 -1 10 -9 0 -9 5 -16 11 -16 5 0 7
-5 3 -11 -5 -8 -10 -6 -16 5 -5 9 -15 16 -23 16 -8 0 -11 7 -8 20 5 18 2 19
-26 14 -21 -5 -31 -3 -31 6 0 7 7 10 15 6 18 -7 45 3 45 16 0 6 -7 8 -15 5 -8
-4 -17 -2 -20 3 -4 6 1 10 9 10 9 0 16 4 16 9 0 14 -41 0 -47 -15 -3 -8 -9
-11 -15 -8 -5 3 0 13 11 21 25 17 27 33 6 33 -8 0 -15 -4 -15 -10 0 -5 -5 -10
-12 -10 -6 0 -8 3 -5 7 4 3 2 12 -5 20 -8 10 -8 17 0 25 8 8 13 7 18 -5 3 -9
11 -17 16 -17 7 0 6 5 -1 13 -6 8 -7 17 -3 21 4 5 -4 6 -18 4 -17 -2 -25 2
-26 12 -1 8 -2 21 -3 28 0 6 -8 12 -17 12 -9 0 -14 6 -11 13 2 6 -3 28 -11 47
-10 24 -11 35 -3 38 6 2 11 8 11 14 0 6 -7 7 -15 4 -18 -7 -39 38 -32 66 3 10
1 16 -4 12 -10 -6 -33 45 -24 54 5 5 68 19 95 21 8 0 20 -3 26 -7z m1818 2
c26 -10 21 -79 -6 -98 -21 -15 -24 -14 -55 16 l-33 32 0 -52 c0 -44 -4 -54
-25 -68 -24 -16 -27 -16 -49 5 -12 11 -26 21 -30 21 -8 0 -4 -36 9 -77 7 -22
5 -23 -49 -23 -64 0 -73 -15 -29 -50 l26 -21 -20 -27 c-30 -40 -46 -38 -73 10
l-25 43 -3 -34 c-2 -21 5 -51 21 -81 23 -45 24 -50 10 -70 -13 -19 -23 -22
-60 -17 -40 4 -44 3 -41 -16 2 -18 16 -29 66 -54 13 -6 -24 -44 -53 -54 -40
-15 -41 -28 -2 -47 32 -16 33 -23 7 -47 -24 -22 -26 -44 -4 -59 12 -9 14 -21
9 -49 -10 -49 -29 -47 -44 6 -7 23 -23 67 -36 97 -13 30 -26 64 -30 75 -11 29
-15 114 -5 120 4 2 5 16 2 30 -2 14 0 31 6 38 6 7 25 41 42 76 57 114 263 309
377 356 63 26 73 28 97 19z m106 -56 c0 -14 -48 -9 -53 6 -3 8 -3 16 0 19 7 8
53 -14 53 -25z m-3670 18 c0 -11 -19 -15 -25 -6 -3 5 1 10 9 10 9 0 16 -2 16
-4z m150 -14 c0 -10 -21 -32 -31 -32 -4 0 -5 9 -2 20 5 19 33 29 33 12z m-40
-6 c0 -2 -7 -9 -15 -16 -12 -10 -15 -10 -15 4 0 9 7 16 15 16 8 0 15 -2 15 -4z
m-132 -32 c-11 -11 -18 -12 -22 -5 -4 6 0 11 8 11 9 0 16 5 16 12 0 6 3 8 7 4
4 -3 0 -14 -9 -22z m2513 -25 c51 -24 145 -97 136 -105 -2 -2 -31 7 -65 21
-34 14 -117 36 -184 50 -124 25 -146 34 -133 55 5 8 36 11 99 8 72 -2 102 -9
147 -29z m-3542 -21 c7 -19 73 -79 80 -72 3 4 0 9 -6 11 -7 3 -13 11 -13 19 0
8 -4 14 -9 14 -5 0 -11 11 -13 25 -6 27 1 32 20 13 9 -9 18 -9 38 0 20 10 25
10 21 0 -2 -7 -10 -12 -17 -10 -6 1 -10 -3 -7 -10 2 -7 11 -12 19 -10 8 1 20
-8 26 -20 11 -22 11 -22 6 5 -7 31 8 36 33 11 9 -8 25 -13 35 -10 18 4 19 3 4
-13 -11 -12 -13 -20 -5 -28 7 -7 3 -12 -16 -15 -19 -4 -25 -2 -21 8 21 52 21
50 3 32 -23 -23 -22 -55 3 -63 11 -3 20 -11 20 -16 0 -12 -27 -12 -35 0 -3 6
-17 4 -33 -5 -31 -16 -82 -19 -82 -4 0 18 -29 11 -40 -10 -14 -26 -50 -26 -57
0 -7 26 -27 20 -31 -8 -2 -12 -16 -29 -32 -37 -27 -14 -29 -14 -32 7 -5 32
-25 33 -32 1 -4 -17 -19 -35 -37 -45 -40 -23 -49 -23 -46 3 3 34 -20 33 -26
-1 -4 -17 -18 -42 -32 -56 -25 -25 -27 -25 -39 -8 -13 17 -14 16 -21 -7 -8
-26 -43 -69 -57 -69 -4 0 -8 10 -9 23 0 22 0 22 -10 -2 -6 -16 -6 -27 1 -31 7
-4 3 -13 -10 -25 -16 -15 -24 -16 -45 -7 -23 11 -24 10 -20 -16 3 -16 -1 -35
-10 -47 -13 -17 -18 -18 -37 -6 -19 12 -20 11 -14 -14 9 -35 -29 -82 -51 -64
-10 9 -13 6 -15 -12 -1 -13 -2 -31 -3 -39 -1 -24 -15 -40 -34 -40 -14 0 -17
-6 -13 -28 4 -33 -20 -64 -43 -56 -18 7 -19 0 -3 -25 16 -26 -11 -97 -35 -95
-20 2 -22 -7 -6 -23 11 -11 4 -73 -9 -73 -3 0 -18 12 -33 26 -31 29 -64 26
-74 -7 -10 -29 0 -34 36 -19 29 12 33 12 50 -11 13 -16 18 -33 14 -53 -7 -41
-14 -44 -34 -17 -24 31 -62 25 -75 -11 -13 -37 -5 -42 33 -21 31 17 32 17 46
-1 14 -19 21 -86 10 -86 -3 0 -19 10 -36 22 -30 23 -31 23 -45 4 -19 -27 -18
-66 2 -66 9 0 18 9 21 20 8 30 43 26 43 -4 0 -14 5 -28 10 -31 16 -10 12 -55
-4 -55 -25 0 -28 -19 -6 -37 18 -16 28 -53 15 -53 -7 0 -54 53 -55 61 0 3 9
16 20 29 11 13 20 29 20 37 0 21 -37 15 -54 -9 -20 -29 -20 -55 0 -66 13 -7
14 -13 4 -31 -11 -21 -5 -81 8 -81 3 0 14 7 24 17 17 15 18 15 18 -1 0 -10 -9
-20 -21 -23 -18 -5 -20 -11 -15 -46 9 -54 57 -198 93 -277 16 -36 28 -71 25
-79 -3 -9 0 -11 8 -6 9 6 11 4 5 -5 -18 -30 -93 104 -147 264 -54 163 -71 269
-72 461 -1 202 15 282 92 465 97 232 324 481 517 566 22 9 58 26 81 36 43 19
79 24 70 9 -17 -28 53 -76 76 -53 14 14 -6 40 -41 53 -29 11 -19 24 24 33 27
6 35 2 60 -29 17 -19 33 -35 37 -35 15 0 8 48 -7 54 -8 3 -15 10 -15 15 0 13
63 2 69 -11z m1001 12 c0 -5 -2 -10 -4 -10 -3 0 -8 5 -11 10 -3 6 -1 10 4 10
6 0 11 -4 11 -10z m1380 -20 c0 -5 -7 -7 -15 -4 -8 4 -15 8 -15 10 0 2 7 4 15
4 8 0 15 -4 15 -10z m950 -43 c31 -15 41 -62 26 -130 -12 -55 -25 -64 -96 -66
l-35 -1 -32 102 c-23 76 -29 105 -20 111 15 10 124 -1 157 -16z m-3060 -7 c0
-5 -5 -10 -11 -10 -5 0 -7 5 -4 10 3 6 8 10 11 10 2 0 4 -4 4 -10z m1711 -1
c53 -18 96 -55 109 -94 17 -52 7 -64 -16 -19 -26 49 -97 95 -159 102 -31 3
-42 8 -33 13 18 12 59 11 99 -2z m1135 -69 c12 -36 29 -99 39 -140 10 -41 20
-82 23 -90 3 -8 7 -22 8 -30 2 -8 6 -27 10 -42 5 -20 1 -29 -15 -37 -17 -10
-21 -9 -21 4 0 8 -5 15 -11 15 -6 0 -9 -9 -6 -19 3 -14 -2 -21 -16 -25 -23 -6
-40 4 -19 11 13 5 18 25 5 21 -5 -2 -10 2 -13 7 -3 6 10 11 28 13 17 2 32 7
32 12 0 4 -17 6 -37 3 l-38 -5 -33 96 c-18 53 -30 101 -26 108 5 7 3 8 -6 3
-10 -6 -12 -4 -7 8 3 9 2 19 -4 22 -14 9 -40 77 -35 91 3 7 0 14 -6 16 -6 2
-9 9 -5 15 4 6 34 10 69 9 l62 -1 22 -65z m411 49 c25 -9 25 -12 19 -66 -4
-31 -8 -58 -9 -60 -2 -1 -27 0 -55 4 l-52 6 0 70 0 69 36 -7 c20 -3 48 -11 61
-16z m-3279 -24 c0 -23 -17 -33 -31 -19 -6 7 14 44 24 44 4 0 7 -11 7 -25z
m42 4 c0 8 3 12 6 8 8 -7 -5 -47 -16 -47 -10 0 -20 37 -12 45 3 3 9 0 14 -7 6
-10 8 -10 8 1z m1237 -28 c34 -50 39 -110 15 -165 -22 -48 -64 -78 -83 -59 -7
7 0 26 22 62 37 59 43 118 17 169 -22 43 -1 38 29 -7z m1104 9 c10 0 19 -4 19
-10 0 -5 -7 -7 -16 -3 -9 3 -20 0 -25 -8 -7 -11 -9 -11 -9 3 0 9 -3 18 -7 21
-5 2 -2 2 5 0 8 -1 22 -3 33 -3z m1110 -86 c44 -24 99 -78 99 -97 0 -3 -37 10
-82 29 -46 18 -90 34 -99 34 -25 0 -41 25 -34 53 6 22 10 24 36 17 15 -5 52
-21 80 -36z m-3425 -34 c164 -21 268 -60 401 -152 172 -118 298 -295 348 -488
23 -88 18 -84 -24 20 -53 132 -113 228 -204 325 -178 191 -387 274 -657 262
-133 -6 -202 -23 -314 -76 -106 -50 -191 -115 -268 -207 -178 -210 -260 -446
-243 -699 9 -146 57 -337 110 -445 32 -64 41 -95 24 -85 -9 6 -11 3 -6 -8 10
-25 -4 -20 -31 10 -60 70 -116 201 -151 353 -71 312 0 627 199 873 187 233
504 356 816 317z m2210 -25 c150 -44 222 -219 147 -356 -81 -149 -268 -175
-388 -54 -32 31 -55 65 -63 91 -40 138 30 279 158 319 59 18 86 18 146 0z
m1022 1 c45 -23 65 -52 59 -83 -8 -41 -35 -130 -36 -118 -1 6 -5 5 -9 -2 -4
-6 -20 -13 -37 -15 -24 -2 -30 2 -37 22 -4 14 -19 63 -33 110 -14 47 -25 88
-25 93 0 13 90 8 118 -7z m-174 -45 c14 -26 32 -92 41 -146 2 -11 13 -63 25
-115 12 -52 24 -115 27 -138 5 -47 5 -47 -56 -24 -9 3 -12 0 -9 -9 2 -8 16
-15 31 -17 14 -2 31 -11 39 -19 11 -14 11 -16 -4 -10 -9 3 -33 9 -53 13 -29 5
-35 10 -30 25 4 11 2 19 -4 19 -6 0 -11 5 -11 10 0 6 6 10 14 10 9 0 12 7 9
20 -3 11 -9 20 -14 20 -5 0 -6 -7 -3 -15 4 -8 1 -15 -5 -15 -6 0 -11 10 -11
21 0 19 4 21 35 16 19 -3 35 -2 35 4 0 9 -27 14 -61 11 -12 -1 -20 14 -29 61
-8 34 -12 68 -11 76 1 8 -1 17 -6 20 -10 7 -68 180 -62 185 5 5 70 24 86 25 7
1 19 -12 27 -28z m-2150 -16 c83 -29 94 -38 75 -62 -13 -16 -13 -16 9 -1 22
15 28 15 76 -2 154 -52 474 -227 518 -281 20 -24 36 -35 47 -32 33 9 99 -17
125 -48 36 -43 32 -57 -5 -19 -39 39 -48 32 -19 -15 17 -28 21 -44 16 -73 -14
-75 -10 -72 -92 -72 -51 0 -76 4 -78 13 -3 6 -7 25 -10 40 l-7 28 -26 -21
c-52 -40 -138 -18 -272 71 -66 43 -81 58 -81 79 0 41 -13 54 -39 38 -19 -11
-24 -11 -39 8 -9 11 -34 31 -55 43 -20 13 -58 53 -84 89 -26 37 -80 106 -120
154 -40 47 -73 89 -73 93 0 9 53 -3 134 -30z m-809 -6 c44 -10 123 -40 175
-66 80 -40 110 -62 190 -143 120 -120 178 -221 221 -388 18 -69 17 -108 -2
-96 -5 3 -9 -2 -9 -10 0 -39 -19 -10 -34 52 -23 94 -106 255 -168 328 -77 90
-141 140 -244 190 -112 53 -204 74 -333 74 -298 0 -556 -173 -690 -461 -104
-224 -102 -476 6 -767 19 -51 33 -96 30 -99 -15 -15 -105 178 -138 297 -33
118 -33 345 0 465 24 89 84 221 131 290 199 289 525 415 865 334z m1238 -30
c17 -17 18 -21 5 -16 -13 5 -18 1 -18 -13 0 -24 -9 -25 -46 -5 -20 10 -23 15
-11 15 9 0 17 5 17 11 0 5 5 7 10 4 6 -3 10 1 10 9 0 21 7 20 33 -5z m2132
-26 c67 -34 175 -143 175 -176 0 -9 -93 43 -98 55 -2 4 -8 8 -13 8 -6 0 -31
10 -57 22 -26 12 -54 22 -62 23 -8 0 -20 4 -27 8 -6 4 -18 4 -26 1 -11 -4 -14
0 -12 13 2 10 7 35 10 55 l6 37 37 -16 c20 -8 51 -22 67 -30z m-575 -112 c0
-12 -9 -20 -25 -23 -20 -4 -25 -1 -25 15 0 16 2 17 15 7 13 -11 14 -10 9 4 -4
11 -1 16 10 16 9 0 16 -8 16 -19z m-3011 -13 c0 -13 -3 -17 -6 -10 -4 10 -8
10 -19 1 -9 -8 -14 -8 -14 -1 0 9 26 30 38 32 1 0 2 -10 1 -22z m71 -4 c0 -8
-5 -12 -10 -9 -6 4 -8 11 -5 16 9 14 15 11 15 -7z m34 -9 c-5 -21 -3 -25 14
-25 11 0 23 6 25 13 3 7 6 5 6 -5 1 -18 24 -20 49 -5 8 5 12 2 12 -8 0 -11 5
-15 14 -12 8 3 17 -1 20 -9 3 -8 12 -14 21 -14 8 0 15 -5 15 -12 0 -6 3 -8 7
-5 3 4 -2 16 -12 27 -22 24 -14 38 8 15 9 -8 22 -14 29 -13 8 2 12 -5 10 -20
-4 -29 24 -60 41 -43 9 9 8 14 -3 21 -13 8 -12 10 3 10 19 0 37 -36 30 -60 -4
-12 -3 -13 5 -1 12 17 35 4 28 -16 -4 -9 10 -33 35 -61 49 -56 108 -176 115
-234 3 -23 8 -46 11 -51 3 -6 1 -7 -5 -3 -6 3 -15 -2 -21 -11 -9 -15 -10 -15
-11 -2 0 8 -12 40 -26 69 -132 274 -369 393 -649 325 -16 -4 -65 -25 -107 -47
-92 -47 -186 -141 -235 -234 -48 -90 -87 -251 -84 -341 2 -32 -11 -44 -24 -23
-3 6 0 10 7 10 9 0 10 2 1 8 -6 4 -14 35 -18 70 -15 152 59 359 174 482 33 35
57 69 54 77 -4 9 0 11 12 7 11 -5 16 -2 15 7 -5 31 2 43 10 21 9 -22 11 -22
41 -7 25 13 28 19 18 31 -6 8 -18 14 -26 14 -8 0 -11 5 -8 10 4 6 17 3 35 -10
15 -11 30 -20 33 -20 12 0 16 33 6 52 -8 16 -8 19 2 16 10 -3 19 -15 36 -47 1
-1 6 0 12 3 7 5 7 15 1 31 -10 26 -2 33 17 14 6 -6 9 -18 6 -25 -4 -11 1 -12
26 -3 33 12 66 15 152 18 48 1 58 4 62 21 3 11 8 20 11 20 4 0 4 -11 0 -25z
m4560 19 c20 -8 21 -48 1 -64 -19 -15 -52 -4 -60 21 -11 35 20 58 59 43z
m-4624 -8 c0 -3 -4 -8 -10 -11 -5 -3 -10 -1 -10 4 0 6 5 11 10 11 6 0 10 -2
10 -4z m2902 -11 c0 -5 -5 -11 -11 -13 -6 -2 -11 4 -11 13 0 9 5 15 11 13 6
-2 11 -8 11 -13z m491 -32 c16 -32 43 -137 52 -203 3 -25 8 -53 11 -62 4 -15
0 -17 -25 -12 -17 4 -31 2 -31 -3 0 -5 12 -10 27 -11 25 -2 42 -16 43 -35 0
-5 -12 -7 -27 -5 -16 2 -27 9 -26 15 2 8 -7 11 -27 9 -17 -2 -30 1 -31 8 -1
29 -8 66 -19 105 -9 33 -8 46 1 57 10 12 9 13 -4 8 -16 -6 -21 5 -32 62 -2 10
-4 21 -5 24 -1 3 -2 9 -1 13 1 4 -3 16 -9 26 -13 25 -4 31 46 31 37 0 45 -4
57 -27z m-413 7 c0 -5 -11 -10 -25 -10 -14 0 -25 5 -25 10 0 6 11 10 25 10 14
0 25 -4 25 -10z m1235 -32 c6 -24 3 -29 -31 -43 -20 -8 -39 -13 -41 -11 -3 2
3 19 13 38 33 66 46 69 59 16z m-1265 2 c0 -5 -4 -10 -10 -10 -5 0 -10 5 -10
10 0 6 5 10 10 10 6 0 10 -4 10 -10z m30 0 c0 -5 -4 -10 -10 -10 -5 0 -10 5
-10 10 0 6 5 10 10 10 6 0 10 -4 10 -10z m599 -31 c95 -51 173 -110 191 -146
8 -16 16 -32 18 -36 5 -11 -36 10 -58 28 -13 12 -54 36 -115 69 -11 6 -35 21
-53 34 -17 13 -32 19 -32 13 0 -20 -30 1 -45 32 -30 61 -11 62 94 6z m-3909 1
c0 -5 -2 -10 -4 -10 -3 0 -8 5 -11 10 -3 6 -1 10 4 10 6 0 11 -4 11 -10z
m3315 0 c3 -5 2 -10 -4 -10 -5 0 -13 5 -16 10 -3 6 -2 10 4 10 5 0 13 -4 16
-10z m5 -40 c0 -5 -2 -10 -4 -10 -3 0 -8 5 -11 10 -3 6 -1 10 4 10 6 0 11 -4
11 -10z m1260 -10 c9 -18 4 -27 -41 -71 -51 -50 -68 -52 -69 -9 0 15 78 100
92 100 4 0 12 -9 18 -20z m-70 -4 c0 -2 -8 -10 -17 -17 -16 -13 -17 -12 -4 4
13 16 21 21 21 13z m-3740 -50 c0 -3 -4 -8 -10 -11 -5 -3 -10 -1 -10 4 0 6 5
11 10 11 6 0 10 -2 10 -4z m3865 -16 c4 -13 -6 -38 -30 -76 -53 -83 -60 -88
-75 -59 -12 22 -10 29 16 66 16 23 35 52 42 65 16 29 38 31 47 4z m-4277 5
c27 -4 42 -11 42 -21 0 -8 5 -14 11 -14 5 0 7 5 4 10 -3 6 1 10 10 10 8 0 20
-10 25 -22 5 -13 9 -17 9 -10 1 6 6 12 12 12 5 0 8 -4 5 -9 -4 -5 0 -12 6 -15
10 -5 10 -7 1 -12 -15 -7 -17 -24 -4 -24 5 0 13 9 16 20 3 11 11 20 17 20 6 0
8 -3 5 -7 -4 -3 -1 -13 6 -21 10 -13 9 -15 -6 -9 -13 5 -17 3 -14 -5 2 -7 10
-12 16 -10 13 2 14 -8 2 -27 -7 -11 -10 -11 -17 2 -12 21 -64 34 -65 16 0 -8
-4 -4 -9 9 -5 12 -14 22 -21 22 -6 0 -9 -7 -5 -15 3 -9 0 -15 -9 -15 -15 0
-16 25 -1 49 7 11 10 11 17 0 8 -12 11 -11 19 1 5 8 10 20 10 25 0 6 -4 3 -10
-5 -5 -8 -12 -11 -16 -7 -4 4 -14 2 -21 -5 -11 -9 -17 -9 -24 3 -5 8 -9 9 -9
2 0 -6 -3 -20 -6 -30 -5 -15 -4 -15 5 -3 9 13 11 13 11 -2 0 -25 -57 -28 -72
-5 -5 8 -8 6 -8 -4 0 -11 -12 -19 -37 -24 -59 -10 -117 -39 -162 -81 -35 -31
-44 -35 -52 -23 -8 10 -8 7 -4 -10 6 -20 4 -23 -10 -17 -13 5 -16 2 -11 -9 8
-21 -14 -54 -31 -48 -7 3 -13 10 -13 15 0 6 7 8 15 4 24 -9 18 22 -10 50 -30
30 -31 45 -5 69 11 10 20 22 20 27 0 16 65 68 120 94 90 43 171 59 248 49z
m427 -15 c3 -5 1 -10 -4 -10 -6 0 -11 5 -11 10 0 6 2 10 4 10 3 0 8 -4 11 -10z
m3918 -62 c8 -12 -1 -35 -34 -93 -24 -43 -48 -76 -54 -74 -5 2 -9 10 -9 17 1
6 -2 12 -7 12 -5 0 4 24 21 53 16 30 30 60 30 68 0 18 21 40 34 36 5 -2 14
-10 19 -19z m-5939 -95 c6 -67 5 -82 -6 -78 -9 4 -14 32 -15 98 -3 111 12 98
21 -20z m5155 98 c7 -5 10 -14 7 -20 -4 -6 -2 -11 3 -11 6 0 11 6 12 13 0 10
2 10 6 0 2 -7 11 -13 19 -13 9 0 12 -4 9 -10 -3 -6 1 -7 9 -4 9 3 16 1 16 -5
0 -6 6 -11 13 -11 12 0 85 -71 118 -114 13 -18 13 -19 -8 -8 -14 8 -24 9 -28
2 -3 -6 -18 1 -33 15 -15 14 -57 47 -94 73 -37 26 -66 52 -63 59 2 7 -2 10
-10 7 -10 -4 -12 0 -8 15 6 23 11 25 32 12z m-432 -23 c-3 -8 -6 -5 -6 6 -1
11 2 17 5 13 3 -3 4 -12 1 -19z m79 -22 c1 -40 -3 -43 -32 -20 -18 14 -18 15
6 8 25 -6 25 -6 5 14 -11 10 -23 18 -27 15 -5 -2 -8 3 -8 11 0 10 8 14 28 12
24 -3 27 -8 28 -40z m-2992 13 c-3 -6 0 -16 7 -21 10 -6 7 -7 -10 -3 -14 5
-21 3 -17 -3 3 -5 -1 -15 -9 -22 -24 -20 -19 12 5 38 22 23 36 30 24 11z
m1688 -21 c161 -96 161 -102 5 -92 l-106 7 13 26 c8 14 17 41 21 59 3 17 8 32
10 32 2 0 28 -14 57 -32z m-1792 2 c0 -5 -4 -10 -10 -10 -5 0 -10 5 -10 10 0
6 5 10 10 10 6 0 10 -4 10 -10z m4321 -16 c11 -13 6 -29 -29 -100 -45 -90 -68
-109 -56 -48 5 29 4 35 -6 29 -9 -5 -11 -4 -6 3 4 7 14 12 22 12 11 0 12 4 2
19 -10 16 -7 26 15 60 30 45 38 49 58 25z m-6101 -15 c0 -6 -4 -7 -10 -4 -5 3
-10 11 -10 16 0 6 5 7 10 4 6 -3 10 -11 10 -16z m1896 -4 c-8 -8 -18 -15 -22
-15 -3 0 -1 7 6 15 7 8 17 15 22 15 5 0 3 -7 -6 -15z m3144 -8 c0 -8 12 -14
30 -14 34 0 45 -7 36 -22 -5 -7 -15 -7 -32 -1 -37 14 -43 12 -37 -12 5 -22 5
-23 -13 -4 -14 13 -15 20 -6 23 6 3 12 11 12 18 0 7 -6 16 -12 18 -8 3 -6 6 5
6 9 1 17 -5 17 -12z m-5026 -102 c2 -22 8 -50 11 -61 6 -19 -9 -43 -20 -32 -7
7 -21 178 -16 184 7 6 17 -34 25 -91z m6192 82 c2 -7 -6 -42 -18 -78 -22 -62
-47 -84 -69 -62 -9 9 8 74 32 126 13 28 46 37 55 14z m-4483 -23 c41 -21 85
-62 103 -95 13 -26 12 -27 -14 -32 -21 -4 -35 3 -68 33 -70 64 -156 66 -216 4
-24 -25 -42 -34 -65 -34 -39 0 -40 6 -10 50 60 90 176 121 270 74z m5063 -11
c-7 -7 -26 7 -26 19 0 6 6 6 15 -2 9 -7 13 -15 11 -17z m-481 -41 c-9 -49 -31
-83 -50 -76 -19 8 -19 52 0 98 14 32 18 35 36 25 18 -9 20 -17 14 -47z m-1195
25 c0 -16 -3 -17 -14 -8 -11 9 -14 8 -12 -6 0 -10 10 -22 21 -27 19 -9 19 -9
1 -13 -10 -3 -26 2 -34 11 -11 11 -12 16 -4 16 9 0 10 5 2 19 -14 28 -13 31
15 29 17 -2 25 -8 25 -21z m-3838 -8 c16 -12 27 -24 24 -26 -3 -3 -19 6 -36
21 -38 31 -30 35 12 5z m5142 -37 c-1 -29 -5 -56 -8 -59 -3 -4 -17 -1 -31 5
-21 10 -25 17 -21 44 6 52 16 69 40 66 19 -3 21 -9 20 -56z m116 17 c6 -11 10
-32 8 -47 -2 -21 -9 -28 -29 -30 -26 -3 -27 -1 -31 50 -2 29 -3 56 -1 61 6 11
41 -11 53 -34z m113 -11 c33 -41 31 -68 -7 -68 -20 0 -27 8 -40 47 -9 26 -16
51 -16 56 0 19 34 0 63 -35z m443 4 c-5 -4 -66 26 -66 33 0 3 16 -3 35 -12 19
-9 33 -18 31 -21z m-341 -9 c19 -21 35 -44 35 -50 0 -20 -48 -15 -58 5 -13 23
-25 82 -18 82 3 0 21 -17 41 -37z m203 -40 c25 -26 31 -40 26 -56 -7 -23 -22
-44 -26 -36 -2 2 -13 18 -26 36 -12 18 -22 46 -22 62 0 16 -4 33 -10 36 -5 3
-10 14 -10 23 1 14 4 12 18 -7 9 -12 32 -39 50 -58z m-5688 46 c0 -6 -4 -7
-10 -4 -5 3 -10 11 -10 16 0 6 5 7 10 4 6 -3 10 -11 10 -16z m3348 9 c18 -18
14 -46 -7 -58 -15 -7 -23 -6 -35 6 -20 19 -20 29 0 48 19 19 26 20 42 4z m432
-3 c7 -9 8 -15 2 -15 -5 0 -12 7 -16 15 -3 8 -4 15 -2 15 2 0 9 -7 16 -15z
m1850 -85 c0 -16 -18 -20 -43 -11 -26 10 -30 19 -42 81 l-7 35 46 -48 c25 -26
46 -52 46 -57z m110 64 c0 -7 11 -25 24 -39 14 -15 27 -32 29 -38 5 -16 27 1
27 22 0 9 -6 23 -12 30 -11 11 -10 13 1 9 8 -2 27 -26 43 -54 55 -97 54 -92
33 -132 -24 -45 -52 -50 -47 -9 4 32 -15 97 -29 97 -5 0 -9 -12 -9 -27 0 -16
-5 -35 -10 -43 -15 -24 -30 0 -41 70 -5 34 -16 75 -24 91 -8 15 -15 36 -15 45
0 13 3 14 15 4 8 -7 15 -18 15 -26z m-7060 -79 c26 -181 90 -423 146 -559 70
-167 145 -294 266 -449 38 -48 66 -92 63 -97 -3 -5 1 -7 9 -4 9 3 17 -2 21
-15 3 -12 11 -21 17 -21 5 0 8 -6 5 -14 -3 -8 -1 -17 6 -19 7 -2 9 -7 5 -11
-14 -15 -152 115 -229 216 -211 276 -324 592 -335 933 -5 162 5 179 26 40z
m400 101 c0 -2 -8 -10 -17 -17 -16 -13 -17 -12 -4 4 13 16 21 21 21 13z m-250
-25 c0 -11 3 -26 6 -35 4 -11 1 -16 -10 -16 -12 0 -16 10 -16 35 0 19 5 35 10
35 6 0 10 -9 10 -19z m260 -27 c0 -8 -4 -12 -10 -9 -5 3 -10 13 -10 21 0 8 5
12 10 9 6 -3 10 -13 10 -21z m900 16 c0 -5 -2 -10 -4 -10 -3 0 -8 5 -11 10 -3
6 -1 10 4 10 6 0 11 -4 11 -10z m3855 -10 c3 -5 1 -10 -4 -10 -6 0 -11 5 -11
10 0 6 2 10 4 10 3 0 8 -4 11 -10z m246 -44 c56 -42 121 -126 149 -190 11 -27
19 -51 17 -53 -2 -2 -16 14 -30 36 -14 21 -48 61 -76 89 -38 38 -47 52 -38 61
9 9 8 10 -7 5 -15 -6 -17 -4 -11 6 6 10 4 12 -8 7 -10 -4 -18 1 -22 14 -4 10
-11 19 -17 19 -5 0 -8 6 -5 14 3 8 1 17 -6 20 -8 3 -8 5 -1 5 6 1 31 -14 55
-33z m1867 -68 c19 -23 22 -84 5 -127 -18 -47 -16 -60 7 -32 15 17 20 38 20
77 0 61 14 65 43 11 20 -37 17 -62 -16 -135 -10 -24 -16 -46 -14 -49 7 -7 54
76 62 110 9 36 21 34 34 -4 16 -47 14 -70 -13 -122 -13 -26 -19 -47 -14 -47
13 0 48 63 48 88 0 40 18 23 30 -28 17 -72 8 -98 -44 -121 -59 -26 -115 -15
-135 25 -11 24 -11 30 0 37 11 6 11 9 1 9 -7 0 -25 29 -42 64 -16 35 -34 66
-39 67 -7 3 -4 19 8 44 17 34 18 51 12 115 -9 86 -4 105 17 64 8 -16 21 -37
30 -46z m-7111 12 c1 -16 1 -30 -2 -30 -10 0 -25 51 -19 62 9 14 17 2 21 -32z
m-69 18 c-6 -18 -28 -21 -28 -4 0 9 7 16 16 16 9 0 14 -5 12 -12z m-194 -133
c7 -66 13 -99 38 -205 14 -63 77 -257 98 -305 38 -86 59 -146 45 -135 -7 6
-25 8 -39 4 -29 -7 -36 10 -9 24 12 7 15 18 10 47 -8 47 -13 52 -37 37 -33
-20 -45 -13 -21 12 21 22 22 28 11 61 -11 34 -14 36 -43 30 l-32 -6 23 20 c14
12 22 30 22 51 0 31 -2 32 -30 27 -34 -7 -40 7 -11 23 16 8 18 13 8 35 -7 14
-19 25 -26 25 -12 0 -12 3 -3 12 19 19 15 58 -7 58 -29 0 -45 -25 -31 -50 6
-11 9 -24 6 -28 -6 -11 24 -144 35 -156 5 -6 9 -18 9 -28 0 -10 7 -35 16 -56
9 -20 18 -49 20 -64 2 -15 12 -44 23 -65 11 -21 22 -49 26 -63 l7 -25 -20 25
c-11 14 -31 52 -45 85 -81 195 -127 390 -127 539 1 91 13 86 24 -9 11 -89 12
-94 18 -101 4 -3 16 -1 27 6 17 8 20 17 15 38 -4 15 -10 29 -13 32 -3 3 -7 52
-9 110 -2 115 10 112 22 -5z m206 91 c0 -21 -21 -31 -30 -15 -5 7 -6 17 -4 21
9 14 34 9 34 -6z m70 -52 c0 -14 -4 -23 -9 -20 -5 3 -7 15 -4 26 7 28 13 25
13 -6z m1508 -64 c2 -97 -7 -123 -57 -157 -32 -21 -44 -23 -187 -23 -119 0
-154 3 -154 13 0 37 64 212 86 233 23 24 27 24 166 22 l143 -3 3 -85z m511 63
c26 -24 63 -129 290 -810 144 -430 261 -789 261 -797 0 -14 -35 -16 -281 -18
-277 -3 -282 -3 -296 -25 -13 -19 -12 -24 6 -42 20 -20 31 -21 290 -21 310 0
304 2 342 -98 72 -191 525 -1578 517 -1587 -11 -12 -484 -20 -605 -10 l-82 7
-15 41 c-8 23 -19 58 -24 77 -6 19 -26 88 -45 152 l-36 117 -6 413 c-4 344 -8
415 -20 427 -12 12 -47 14 -187 13 -95 -2 -181 -5 -190 -8 -12 -4 -18 -15 -18
-34 0 -40 29 -54 101 -47 53 5 58 3 68 -19 14 -32 44 -31 75 3 25 27 26 27 60
10 l35 -16 3 -408 3 -408 41 -125 c60 -180 61 -186 29 -194 -40 -10 -94 4
-110 28 -13 20 -124 351 -160 479 -29 101 -10 97 -487 97 l-406 0 -30 -25
c-25 -21 -39 -54 -86 -203 -83 -261 -107 -324 -132 -349 -21 -21 -32 -23 -142
-23 -89 0 -122 4 -131 14 -8 10 -10 238 -9 842 l3 829 23 3 c40 6 52 -14 52
-89 0 -65 2 -70 25 -81 42 -19 60 8 58 84 -2 71 7 88 49 88 32 0 36 -7 46 -76
7 -48 8 -49 42 -49 l35 0 5 60 5 60 86 5 c110 6 142 29 102 72 -15 17 -37 18
-280 18 -206 0 -265 3 -269 13 -4 12 111 346 246 712 29 77 79 221 112 320 64
190 82 222 117 210 21 -6 21 -8 21 -371 0 -346 -1 -367 -20 -404 -19 -36 -19
-43 -6 -75 18 -42 55 -55 91 -31 34 22 42 60 21 102 -14 30 -16 80 -16 367 0
183 3 351 6 373 l6 41 111 6 c140 7 180 20 239 77 56 55 68 93 68 218 l0 92
185 0 185 0 29 -27z m1465 11 c3 -9 6 -78 6 -155 0 -105 -4 -149 -16 -179 -20
-49 -9 -84 31 -102 22 -10 30 -8 53 9 23 17 26 27 24 59 -2 22 -4 116 -5 209
l-2 170 610 3 c682 3 663 4 728 -67 18 -20 71 -100 117 -177 46 -76 117 -192
157 -256 40 -65 73 -128 73 -140 0 -13 -29 -86 -64 -163 l-63 -140 -174 -5
c-96 -3 -181 -9 -190 -13 -26 -13 -42 -53 -36 -89 6 -40 121 -358 344 -953
130 -349 164 -447 160 -475 -5 -41 -139 -328 -298 -640 -159 -312 -177 -325
-433 -318 -146 4 -159 11 -175 92 -56 290 -102 535 -112 599 l-12 78 30 42
c16 23 54 87 83 142 48 92 139 262 371 696 53 99 89 179 89 196 0 17 -36 95
-94 198 -51 94 -144 265 -206 380 -128 236 -144 261 -182 281 -36 19 -777 21
-811 2 -43 -22 -46 -37 -47 -185 0 -78 -3 -148 -6 -157 -5 -14 -45 -16 -347
-16 -303 0 -342 2 -359 17 -17 15 -18 45 -18 545 l0 528 384 0 c341 0 385 -2
390 -16z m-3546 -22 c2 -7 -3 -12 -12 -12 -9 0 -16 7 -16 16 0 17 22 14 28 -4z
m2660 -581 c2 -551 1 -582 -15 -579 -13 2 -20 17 -25 48 -11 74 -9 1065 2
1095 6 15 16 25 23 22 9 -3 13 -132 15 -586z m-2578 517 c0 -5 -4 -8 -10 -8
-5 0 -10 10 -10 23 0 18 2 19 10 7 5 -8 10 -18 10 -22z m-75 12 c3 -5 -1 -10
-10 -10 -9 0 -13 5 -10 10 3 6 8 10 10 10 2 0 7 -4 10 -10z m12 -56 c-9 -9
-28 6 -21 18 4 6 10 6 17 -1 6 -6 8 -13 4 -17z m68 16 c3 -5 1 -10 -4 -10 -6
0 -11 5 -11 10 0 6 2 10 4 10 3 0 8 -4 11 -10z m6905 -10 c0 -5 -4 -10 -10
-10 -5 0 -10 5 -10 10 0 6 5 10 10 10 6 0 10 -4 10 -10z m71 -57 c53 -84 97
-302 72 -348 -10 -17 -11 -16 -18 5 -4 13 -13 29 -19 36 -15 16 -36 42 -69 85
-30 40 -35 64 -11 55 9 -3 12 -2 9 5 -4 5 -15 7 -25 4 -24 -8 -38 15 -16 27
21 12 22 53 1 44 -8 -3 -22 -9 -32 -13 -10 -4 -6 5 11 25 25 28 32 51 14 45
-14 -5 -9 14 7 27 12 10 15 10 15 0 0 -7 6 -10 14 -7 22 9 28 -5 8 -19 -9 -7
-12 -14 -6 -14 6 0 17 7 24 15 10 12 8 21 -14 49 -14 19 -26 37 -26 40 0 12
42 -30 61 -61z m-1701 -6 c0 -6 -11 0 -25 13 -14 13 -25 28 -25 33 0 6 11 0
25 -13 14 -13 25 -28 25 -33z m-5700 -97 c61 -363 186 -630 420 -895 89 -101
90 -102 90 -115 0 -6 3 -9 8 -7 4 3 13 -1 20 -9 11 -12 9 -14 -7 -14 -11 0
-26 8 -33 18 -7 9 -19 18 -27 20 -44 10 -190 158 -277 282 -82 116 -176 343
-209 505 -20 92 -31 289 -20 331 9 36 10 35 35 -116z m437 108 c-3 -8 -6 -5
-6 6 -1 11 2 17 5 13 3 -3 4 -12 1 -19z m-49 -9 c-2 -6 -8 -10 -13 -10 -5 0
-11 4 -13 10 -2 6 4 11 13 11 9 0 15 -5 13 -11z m72 -39 c0 -11 -2 -20 -4 -20
-2 0 -6 9 -9 20 -3 11 -1 20 4 20 5 0 9 -9 9 -20z m6830 0 c0 -5 -5 -10 -11
-10 -5 0 -7 5 -4 10 3 6 8 10 11 10 2 0 4 -4 4 -10z m-6890 -14 c0 -3 -4 -8
-10 -11 -5 -3 -10 -1 -10 4 0 6 5 11 10 11 6 0 10 -2 10 -4z m80 -47 c0 -5 -4
-9 -10 -9 -5 0 -10 7 -10 16 0 8 5 12 10 9 6 -3 10 -10 10 -16z m-70 7 c0 -3
-4 -8 -10 -11 -5 -3 -10 -1 -10 4 0 6 5 11 10 11 6 0 10 -2 10 -4z m7324 -63
c10 -61 7 -195 -5 -238 -6 -22 -19 -45 -28 -52 -25 -19 -82 -15 -126 10 l-40
23 -2 118 -2 118 31 -6 c48 -9 92 3 124 34 16 15 32 28 35 29 4 1 9 -16 13
-36z m-7219 -3 c3 -5 -1 -10 -9 -10 -9 0 -16 5 -16 10 0 6 4 10 9 10 6 0 13
-4 16 -10z m-70 -20 c3 -5 1 -10 -4 -10 -6 0 -11 5 -11 10 0 6 2 10 4 10 3 0
8 -4 11 -10z m95 -55 c0 -8 -4 -15 -10 -15 -5 0 -10 7 -10 15 0 8 5 15 10 15
6 0 10 -7 10 -15z m-621 -37 c1 -5 -3 -8 -9 -8 -5 0 -10 12 -9 28 0 24 1 25 9
7 5 -11 9 -23 9 -27z m541 11 c0 -6 -4 -7 -10 -4 -5 3 -10 11 -10 16 0 6 5 7
10 4 6 -3 10 -11 10 -16z m-540 -44 c0 -20 1 -27 10 -50 19 -53 21 -75 5 -75
-12 0 -15 6 -10 21 6 16 4 20 -6 13 -12 -6 -12 -5 -1 8 8 11 9 17 2 20 -13 4
-23 78 -10 78 6 0 10 -7 10 -15z m670 -5 c0 -5 -7 -10 -16 -10 -8 0 -12 5 -9
10 3 6 10 10 16 10 5 0 9 -4 9 -10z m6771 -27 c70 -74 82 -99 76 -158 -3 -29
-15 -75 -27 -102 l-22 -48 -30 35 c-57 67 -127 171 -133 201 -8 38 14 72 27
42 6 -12 7 -9 3 10 -5 23 -2 30 15 34 11 3 20 9 20 14 0 22 39 6 71 -28z
m-121 24 c0 -2 -9 -14 -20 -27 -22 -25 -26 -20 -10 11 9 16 30 27 30 16z
m-7420 -63 c0 -46 50 -233 85 -315 43 -102 112 -220 185 -315 57 -74 206 -234
219 -234 14 -1 53 -41 56 -57 1 -10 8 -17 13 -16 6 2 9 -4 6 -12 -4 -8 -17
-15 -29 -15 -26 0 -41 -15 -26 -24 5 -4 11 -1 13 6 3 9 6 9 11 1 5 -7 -1 -17
-13 -23 -16 -8 -20 -8 -18 2 2 7 -4 13 -12 13 -8 0 -18 3 -21 8 -10 14 -48 17
-43 3 3 -7 -3 -19 -12 -27 -16 -13 -17 -12 -12 8 4 16 -1 26 -18 38 -21 14
-24 14 -24 0 0 -8 5 -15 10 -15 6 0 10 -4 10 -10 0 -13 -33 0 -43 17 -5 7 -12
11 -17 8 -4 -3 -10 2 -14 10 -3 8 -12 12 -21 9 -8 -3 -15 -1 -15 6 0 6 -4 8
-10 5 -6 -4 -7 1 -3 11 4 12 3 15 -5 10 -7 -4 -12 -1 -12 10 0 13 -3 14 -15 4
-10 -9 -15 -9 -15 -1 0 6 -6 11 -12 11 -7 1 -22 8 -33 18 -30 25 -147 170
-175 217 -13 22 -28 42 -32 43 -4 2 -8 12 -8 22 0 9 -7 23 -15 30 -27 23 -17
-11 30 -98 105 -195 272 -362 470 -468 76 -41 86 -50 78 -71 -5 -12 -7 -12
-14 -2 -4 7 -5 17 -3 21 3 4 0 8 -5 8 -6 0 -11 -6 -11 -14 0 -8 -3 -21 -6 -30
-4 -12 0 -16 15 -16 12 0 21 -4 21 -9 0 -10 -14 -9 -43 4 -13 6 -15 10 -6 21
13 16 4 48 -11 39 -5 -3 -10 -15 -10 -25 0 -10 -5 -22 -10 -25 -7 -4 -8 8 -4
37 7 41 6 42 -11 28 -14 -11 -19 -12 -22 -2 -5 14 -33 16 -33 2 0 -6 11 -16
25 -22 14 -6 25 -15 25 -19 0 -8 -42 0 -50 10 -3 3 -21 15 -40 25 -112 63
-243 183 -315 291 -156 233 -185 511 -80 775 14 36 31 70 39 75 13 10 16 16
16 35 0 6 5 10 10 10 6 0 10 -12 10 -26z m705 -4 c3 -5 1 -10 -4 -10 -6 0 -11
5 -11 10 0 6 2 10 4 10 3 0 8 -4 11 -10z m95 0 c0 -5 -2 -10 -4 -10 -3 0 -8 5
-11 10 -3 6 -1 10 4 10 6 0 11 -4 11 -10z m-660 -70 c0 -5 -7 -10 -15 -10 -8
0 -15 5 -15 10 0 6 7 10 15 10 8 0 15 -4 15 -10z m7600 -27 c19 -9 55 -18 82
-21 56 -5 58 -12 24 -80 -55 -109 -179 -225 -284 -265 -66 -26 -67 -21 -13 40
66 74 125 190 141 276 7 37 13 67 15 67 1 0 17 -7 35 -17z m-7590 3 c0 -3 -4
-8 -10 -11 -5 -3 -10 -1 -10 4 0 6 5 11 10 11 6 0 10 -2 10 -4z m7120 -18
c116 -59 162 -227 90 -329 -23 -32 -103 -74 -125 -65 -12 4 -6 15 25 43 23 20
48 49 56 64 20 40 18 122 -5 168 -22 41 -78 95 -110 106 -28 9 -27 35 2 35 12
0 43 -10 67 -22z m-6120 8 c0 -3 -4 -8 -10 -11 -5 -3 -10 -1 -10 4 0 6 5 11
10 11 6 0 10 -2 10 -4z m-990 -26 c0 -5 -4 -10 -9 -10 -6 0 -13 5 -16 10 -3 6
1 10 9 10 9 0 16 -4 16 -10z m7934 -9 c33 -36 -18 -83 -52 -49 -23 23 -7 68
23 68 7 0 20 -9 29 -19z m-565 -124 l31 -19 -22 -31 c-40 -59 -51 -69 -60 -55
-4 7 -8 29 -8 48 0 33 -17 110 -35 155 -4 11 8 -2 28 -29 20 -27 50 -58 66
-69z m-7359 73 c0 -5 -5 -10 -11 -10 -5 0 -7 5 -4 10 3 6 8 10 11 10 2 0 4 -4
4 -10z m368 -17 c11 -20 9 -21 -23 -20 l-34 1 22 21 c12 12 23 21 23 21 1 -1
6 -11 12 -23z m-348 -38 c0 -5 -5 -3 -10 5 -5 8 -10 20 -10 25 0 6 5 3 10 -5
5 -8 10 -19 10 -25z m7036 -7 c23 -45 25 -66 8 -107 -17 -42 -53 -67 -81 -57
-15 6 -13 9 13 21 42 17 62 70 37 97 -9 10 -23 16 -30 14 -7 -3 -13 -1 -13 3
0 5 6 11 13 14 9 3 7 10 -6 25 -18 20 -18 20 0 24 28 7 42 -2 59 -34z m-6654
-55 c-27 -20 -34 -15 -15 11 11 15 21 20 25 13 4 -6 -1 -17 -10 -24z m68 -63
c0 -5 -4 -10 -10 -10 -5 0 -10 5 -10 10 0 6 5 10 10 10 6 0 10 -4 10 -10z m90
-140 c0 -5 -5 -10 -11 -10 -5 0 -7 5 -4 10 3 6 8 10 11 10 2 0 4 -4 4 -10z
m7338 -16 c41 -11 23 -22 -45 -26 -38 -3 -77 -8 -88 -13 -19 -7 -19 -7 1 8 18
14 74 34 99 36 6 0 20 -2 33 -5z m-4052 -126 c12 -39 -12 -45 -203 -43 -98 1
-256 2 -350 3 l-173 2 0 30 0 30 359 0 360 0 7 -22z m3618 -7 c3 -4 -32 -25
-79 -46 -46 -20 -102 -52 -123 -71 -41 -35 -50 -34 -65 9 -12 34 52 75 158
102 60 16 102 18 109 6z m250 -89 c26 -12 45 -26 42 -30 -3 -5 -33 -13 -67
-16 -131 -15 -238 -74 -368 -203 -46 -46 -88 -83 -92 -83 -5 0 -9 -6 -9 -14 0
-8 -6 -16 -14 -19 -8 -3 -21 -25 -31 -50 -15 -39 -20 -44 -51 -45 -22 -1 -34
3 -34 12 0 31 48 157 80 210 70 115 214 225 336 255 58 15 154 7 208 -17z
m-884 -3 c9 -16 8 -26 -5 -45 -17 -27 -27 -29 -56 -14 -21 12 -25 50 -7 68 19
19 56 14 68 -9z m356 -45 c6 -31 2 -40 -28 -72 -69 -72 -124 -168 -159 -276
-20 -62 -24 -66 -52 -66 l-30 0 7 52 c9 65 48 166 91 233 41 64 133 165 151
165 7 0 16 -16 20 -36z m-2818 -18 l37 -34 3 -259 c2 -279 1 -288 -51 -327
-26 -19 -45 -21 -247 -26 -212 -5 -220 -6 -242 -28 -23 -23 -23 -23 -20 -285
3 -240 5 -264 23 -289 15 -21 19 -44 19 -102 0 -66 3 -77 22 -90 20 -14 24
-14 40 0 13 12 18 35 20 93 l3 76 45 3 c33 3 47 -1 57 -14 10 -14 13 -102 13
-385 l0 -368 -35 -7 c-19 -3 -45 -4 -58 0 -23 5 -24 11 -30 112 -4 59 -7 164
-7 234 0 134 -7 154 -44 127 -13 -10 -16 -46 -19 -235 -3 -139 -8 -227 -15
-234 -16 -16 -107 9 -143 39 -16 14 -38 42 -48 62 -16 32 -439 1294 -536 1601
-59 184 -64 312 -14 353 20 16 64 17 605 17 l584 0 38 -34z m-4074 -178 c15
-18 16 -20 2 -15 -11 4 -16 1 -16 -11 0 -13 -2 -14 -9 -3 -7 10 -4 51 3 51 1
0 10 -10 20 -22z m106 12 c0 -5 -2 -10 -4 -10 -3 0 -8 5 -11 10 -3 6 -1 10 4
10 6 0 11 -4 11 -10z m7484 -58 c58 -34 84 -124 46 -162 -19 -19 -33 -20 -230
-20 -136 0 -210 4 -210 10 0 19 48 86 80 114 95 79 232 104 314 58z m-1132
-18 c14 -31 1 -57 -31 -62 -29 -5 -51 15 -51 44 0 45 63 59 82 18z m-7102 -81
c0 -7 5 -13 12 -13 6 0 9 -2 6 -5 -10 -10 -35 6 -47 31 -16 35 -14 40 9 19 11
-10 20 -24 20 -32z m722 -55 c-9 -9 -12 -7 -12 12 0 19 3 21 12 12 9 -9 9 -15
0 -24z m19 -11 c-10 -9 -11 -8 -5 6 3 10 9 15 12 12 3 -3 0 -11 -7 -18z m-743
-64 c22 -32 55 -73 72 -90 20 -21 30 -39 26 -49 -5 -12 -1 -14 15 -9 14 5 19
4 15 -4 -4 -6 -2 -19 4 -28 11 -17 11 -17 6 0 -3 9 -1 17 4 17 6 0 10 -7 10
-16 0 -8 4 -13 9 -10 5 4 7 -4 3 -16 -3 -13 -1 -19 5 -15 6 4 16 0 23 -7 9
-12 7 -17 -8 -25 -16 -9 -21 -7 -26 12 -7 21 -7 21 -16 2 -5 -11 -9 -14 -9 -7
-1 6 -7 12 -14 12 -37 0 -142 119 -165 187 -9 26 -7 103 3 103 1 0 20 -26 43
-57z m742 17 c0 -5 -4 -10 -10 -10 -5 0 -10 5 -10 10 0 6 5 10 10 10 6 0 10
-4 10 -10z m566 -1597 c-8 -8 -102 -13 -113 -6 -8 6 -12 88 -14 297 -2 231 -5
291 -16 302 -17 16 -23 17 -43 4 -13 -8 -15 -53 -15 -307 l0 -298 -28 -3 c-55
-7 -57 0 -57 238 0 181 -3 220 -15 230 -12 10 -18 10 -30 0 -12 -10 -15 -47
-15 -214 0 -110 -3 -211 -6 -223 -6 -22 -11 -23 -105 -23 -54 0 -100 4 -103 9
-6 9 125 404 227 686 155 427 287 795 287 799 0 2 10 26 23 53 l22 48 3 -794
c1 -437 0 -796 -2 -798z m5896 1390 c36 -33 12 -73 -44 -73 -45 0 -62 38 -31
72 20 22 51 23 75 1z m470 4 c2 -20 -37 -97 -49 -97 -17 0 -16 7 3 64 11 31
21 46 31 44 8 -2 14 -7 15 -11z m224 1 c5 -6 -64 -179 -79 -196 -15 -19 -596
-12 -644 7 -18 7 -33 16 -33 21 0 13 109 21 334 25 121 3 222 8 226 12 4 4 17
34 30 66 14 37 31 62 44 66 20 8 114 7 122 -1z m-351 -25 c-8 -32 -42 -83 -56
-83 -11 0 -6 22 17 78 17 41 50 45 39 5z m743 15 c25 -25 9 -104 -30 -145 -16
-17 -24 -20 -35 -12 -10 9 -13 7 -13 -6 0 -14 -3 -13 -20 6 -12 15 -19 19 -20
10 0 -11 -3 -11 -15 -1 -25 20 -17 26 33 25 53 -1 82 9 82 29 0 11 -17 13 -72
11 -55 -2 -77 1 -90 13 -16 13 -18 13 -18 0 0 -10 -8 -13 -30 -10 -16 2 -27 8
-24 13 3 5 1 9 -5 9 -5 0 -11 -6 -14 -12 -3 -9 -9 -7 -20 7 l-16 20 -16 -20
c-15 -19 -15 -19 -9 10 15 67 10 65 172 65 102 0 152 -4 160 -12z m-181 -130
c4 10 8 10 19 1 18 -15 18 -45 0 -52 -17 -7 -31 8 -40 43 -6 20 -5 22 4 10 9
-12 13 -12 17 -2z m-117 -13 c0 -8 -5 -15 -11 -15 -5 0 -8 4 -5 9 4 5 0 12 -6
14 -8 3 -6 6 5 6 9 1 17 -6 17 -14z m48 3 c16 -16 15 -31 0 -21 -7 4 -17 8
-22 8 -5 0 -11 6 -13 13 -6 15 19 16 35 0z m39 -3 c8 -22 -6 -33 -17 -15 -13
20 -12 30 0 30 6 0 13 -7 17 -15z m-400 -217 c-3 -8 -6 -5 -6 6 -1 11 2 17 5
13 3 -3 4 -12 1 -19z m-311 -94 c48 -102 49 -104 34 -104 -12 0 -100 173 -100
195 0 33 24 0 66 -91z m149 -40 c48 -96 64 -139 56 -147 -7 -7 -29 30 -76 128
-62 131 -77 173 -56 160 5 -3 40 -66 76 -141z m84 104 c71 -130 92 -181 82
-191 -7 -7 -24 20 -56 88 -26 54 -51 108 -56 121 -14 40 6 27 30 -18z m-7085
26 c18 -7 12 -24 -10 -24 -8 0 -14 7 -14 15 0 17 2 18 24 9z m46 -9 c-7 -9
-15 -13 -19 -10 -3 3 1 10 9 15 21 14 24 12 10 -5z m7216 -112 c-3 -8 -10 -11
-16 -8 -12 7 -14 98 -2 109 9 9 25 -82 18 -101z m-3139 -145 c6 -7 13 -58 17
-112 8 -116 27 -167 79 -213 36 -31 118 -63 163 -63 13 0 25 -4 28 -8 9 -15
66 -355 60 -361 -3 -3 -104 -7 -225 -9 l-219 -3 -10 26 c-14 36 -13 710 0 736
8 14 21 19 54 19 24 0 48 -6 53 -12z m212 -2 c7 -8 17 -43 22 -78 6 -34 17
-99 25 -143 7 -43 10 -83 6 -87 -11 -11 -76 9 -107 34 -38 29 -55 75 -62 167
-8 101 2 121 61 121 25 0 48 -6 55 -14z m-4394 -76 c3 -5 1 -10 -4 -10 -6 0
-11 5 -11 10 0 6 2 10 4 10 3 0 8 -4 11 -10z m55 -35 c7 -9 8 -15 2 -15 -5 0
-12 7 -16 15 -3 8 -4 15 -2 15 2 0 9 -7 16 -15z m5550 -13 c0 -44 -304 -642
-326 -642 -8 0 -14 7 -14 16 0 15 293 607 312 632 15 18 28 15 28 -6z m140
-133 c0 -23 -104 -248 -190 -411 -38 -72 -57 -98 -71 -98 -10 0 -19 2 -19 4 0
7 249 512 256 519 14 13 24 7 24 -14z m-5710 -89 c0 -5 -4 -10 -10 -10 -5 0
-10 5 -10 10 0 6 5 10 10 10 6 0 10 -4 10 -10z m65 -10 c3 -5 1 -10 -4 -10 -6
0 -11 5 -11 10 0 6 2 10 4 10 3 0 8 -4 11 -10z m5737 -130 c-4 -43 -126 -275
-145 -278 -25 -5 -20 8 60 175 37 76 70 132 77 130 6 -2 10 -14 8 -27z m98
-166 c0 -28 -42 -114 -56 -114 -21 0 -17 25 11 80 25 49 45 65 45 34z m-4616
-229 c160 -42 304 -160 375 -306 22 -46 42 -100 43 -119 3 -31 0 -35 -22 -36
-64 -5 -194 45 -158 59 12 5 8 7 -34 11 -7 0 -17 10 -22 22 -5 11 -19 25 -30
30 -12 5 -20 15 -18 22 1 7 -4 12 -12 12 -8 0 -18 9 -21 20 -3 11 -13 20 -22
20 -21 0 -74 40 -68 51 4 5 0 6 -8 3 -8 -3 -18 0 -22 5 -3 6 -10 9 -15 6 -5
-3 -8 8 -8 25 1 17 -4 36 -10 42 -7 7 -9 -1 -6 -28 2 -22 1 -33 -2 -26 -3 6
-10 10 -15 7 -5 -4 -6 1 -3 10 4 8 0 23 -7 32 -11 13 -11 17 -1 20 6 3 12 9
12 14 0 6 -4 7 -10 4 -5 -3 -9 2 -7 12 1 10 -2 18 -8 18 -5 0 -9 -4 -7 -8 4
-12 -26 -20 -45 -12 -17 6 -17 7 1 21 18 13 19 14 2 14 -14 0 -17 5 -13 22 4
12 1 28 -5 35 -15 19 91 17 166 -2z m-934 -21 c0 -4 -16 -22 -36 -41 -35 -33
-42 -60 -8 -32 15 12 19 11 32 -9 8 -12 21 -22 29 -22 8 0 13 -7 11 -17 -3
-19 -28 -31 -28 -13 0 14 -25 40 -38 40 -6 0 -6 -10 1 -25 7 -14 15 -25 20
-25 4 0 7 -9 7 -20 0 -11 5 -20 10 -20 6 0 10 -7 10 -15 0 -8 -4 -15 -10 -15
-5 0 -10 7 -10 15 0 8 -7 15 -15 15 -9 0 -15 9 -15 23 -1 21 -3 20 -29 -11
-15 -17 -31 -29 -34 -25 -13 12 -7 39 13 61 11 12 20 26 20 32 0 15 -20 12
-26 -5 -13 -34 -24 -11 -24 50 l0 65 60 0 c33 0 60 -3 60 -6z m26 -28 c-5 -19
0 -29 16 -40 16 -12 19 -19 11 -27 -8 -8 -13 -5 -18 10 -3 12 -15 21 -26 21
-24 0 -25 28 -1 46 24 18 25 17 18 -10z m731 -28 c-3 -7 -5 -2 -5 12 0 14 2
19 5 13 2 -7 2 -19 0 -25z m-667 -8 c0 -5 -4 -10 -10 -10 -5 0 -10 5 -10 10 0
6 5 10 10 10 6 0 10 -4 10 -10z m5950 -40 c0 11 3 11 12 2 16 -16 3 -26 -19
-17 -10 5 -21 8 -25 7 -4 -1 -5 5 -1 13 5 13 7 13 19 -2 10 -14 13 -15 14 -3z
m-5260 0 c0 -5 -2 -10 -4 -10 -3 0 -8 5 -11 10 -3 6 -1 10 4 10 6 0 11 -4 11
-10z m36 -17 c-10 -10 -19 5 -10 18 6 11 8 11 12 0 2 -7 1 -15 -2 -18z m-716
13 c0 -2 -7 -9 -15 -16 -12 -10 -15 -10 -15 4 0 9 7 16 15 16 8 0 15 -2 15 -4z
m5975 -35 c-3 -6 -11 -8 -17 -5 -6 4 -5 9 3 15 16 10 23 4 14 -10z m-348 -3
c18 -7 33 -16 33 -21 0 -4 4 -6 9 -2 8 4 178 -62 249 -97 26 -13 28 -35 6 -66
-21 -30 -43 -28 -148 17 -50 21 -126 53 -168 71 -66 27 -78 35 -78 55 0 22 32
55 54 55 5 0 25 -5 43 -12z m-5667 -6 c0 -5 -9 -17 -20 -27 -11 -10 -20 -13
-20 -7 0 7 5 12 10 12 6 0 10 7 10 15 0 8 5 15 10 15 6 0 10 -4 10 -8z m4613
-28 c26 -9 47 -21 47 -27 0 -6 -11 -27 -25 -47 l-26 -37 -49 13 c-73 19 -120
2 -120 -42 0 -26 29 -45 100 -64 111 -30 162 -79 162 -155 0 -126 -142 -197
-299 -150 -28 8 -61 23 -72 33 l-22 17 27 38 c19 28 30 37 42 31 10 -4 43 -14
75 -23 52 -14 60 -14 85 0 20 11 27 23 27 44 0 28 -4 31 -90 62 -119 42 -155
79 -155 156 0 68 28 113 90 145 54 27 135 29 203 6z m-2133 -44 l0 -49 -142
-3 -143 -3 -3 -57 -3 -58 116 0 115 0 0 -50 0 -49 -112 -3 -113 -3 -3 -97 -3
-98 -59 0 -60 0 0 260 0 260 205 0 205 0 0 -50z m350 -210 l0 -260 -60 0 -60
0 0 260 0 260 60 0 60 0 0 -260z m374 183 c3 -42 6 -134 6 -205 l0 -129 142 2
c140 1 142 1 150 -22 5 -13 8 -37 6 -54 l-3 -30 -212 -3 -213 -2 0 260 0 260
59 0 58 0 7 -77z m-3309 56 c4 -5 0 -18 -9 -28 -20 -22 -20 -31 -1 -31 8 0 15
7 15 15 0 8 5 15 10 15 17 0 11 -19 -17 -50 l-27 -30 -12 37 c-11 32 -11 41 2
60 16 25 29 29 39 12z m118 -4 c-3 -9 -8 -14 -10 -11 -3 3 -2 9 2 15 9 16 15
13 8 -4z m6127 4 c0 -6 7 -17 15 -25 8 -8 11 -22 8 -31 -4 -11 -3 -14 5 -9 18
11 -31 -118 -62 -165 -33 -50 -43 -53 -89 -34 l-38 16 31 26 c17 14 44 52 61
84 25 51 33 74 39 114 1 6 6 1 11 -10 7 -16 8 -13 4 13 -2 17 0 32 5 32 6 0
10 -5 10 -11z m190 -16 c0 -77 -78 -244 -152 -327 -27 -31 -54 -56 -59 -56
-19 0 -8 31 24 67 54 61 105 148 120 206 15 57 43 115 33 68 -4 -18 -2 -21 6
-13 6 6 12 27 12 47 1 41 16 48 16 8z m-2503 -95 c40 -38 78 -68 84 -68 6 0
54 41 107 90 53 50 99 87 103 83 10 -12 48 -127 64 -197 9 -35 15 -112 15
-179 l0 -118 -57 3 -58 3 -6 103 c-4 57 -9 105 -11 107 -3 3 -36 -24 -74 -60
-38 -35 -73 -65 -78 -65 -4 0 -40 29 -78 65 -39 36 -74 65 -78 65 -4 0 -11
-50 -15 -110 l-7 -111 -56 3 -57 3 0 140 c1 142 13 209 61 324 l14 34 28 -24
c15 -13 59 -54 99 -91z m2483 92 c0 -5 -4 -10 -10 -10 -5 0 -10 5 -10 10 0 6
5 10 10 10 6 0 10 -4 10 -10z m-6320 -24 c0 -3 -4 -8 -10 -11 -5 -3 -10 -1
-10 4 0 6 5 11 10 11 6 0 10 -2 10 -4z m-30 -26 c0 -5 -2 -10 -4 -10 -3 0 -8
5 -11 10 -3 6 -1 10 4 10 6 0 11 -4 11 -10z m814 -30 c133 -61 191 -217 123
-333 -67 -113 -189 -137 -282 -55 -61 53 -69 128 -18 188 19 24 33 30 61 29
33 0 35 -1 17 -12 -46 -28 -75 -66 -75 -97 0 -76 59 -126 140 -118 52 5 87 27
119 73 45 67 40 140 -16 205 -144 168 -408 58 -406 -170 1 -76 20 -125 68
-179 112 -123 322 -102 443 44 27 33 30 35 43 18 12 -14 12 -16 0 -8 -11 6
-13 2 -7 -19 4 -18 3 -25 -3 -21 -7 3 -8 0 -5 -9 3 -9 1 -16 -5 -16 -6 0 -11
-7 -11 -16 0 -16 -30 -52 -30 -37 0 4 -5 0 -11 -9 -5 -10 -17 -18 -24 -18 -8
0 -15 -4 -15 -9 0 -16 -60 -40 -126 -53 -78 -14 -173 6 -246 53 -59 38 -88 72
-123 143 -125 256 137 542 389 426z m4362 17 c4 -4 2 -7 -4 -7 -6 0 -9 -7 -6
-15 9 -21 -8 -19 -28 4 -12 14 -13 21 -5 24 16 5 35 3 43 -6z m-5192 -13 c9
-22 8 -23 -15 -17 -19 5 -20 4 -9 -16 6 -13 9 -25 6 -29 -3 -3 -6 0 -6 6 0 7
-7 12 -15 12 -19 0 -19 6 3 35 20 29 28 31 36 9z m5160 -23 c15 -17 15 -20 2
-34 -8 -8 -13 -17 -10 -20 3 -2 -9 -26 -25 -53 -17 -26 -31 -52 -31 -56 0 -10
-249 -425 -328 -548 -103 -159 -424 -645 -463 -700 -21 -30 -73 -107 -116
-170 -43 -63 -86 -123 -95 -132 -10 -10 -18 -22 -18 -28 0 -5 -12 -22 -28 -37
-15 -16 -33 -39 -40 -53 -15 -28 -58 -63 -71 -58 -5 2 16 40 47 86 32 46 102
148 156 228 55 79 97 147 94 149 -3 3 -58 -70 -123 -162 -234 -333 -224 -320
-257 -327 -17 -3 -33 -4 -35 -2 -3 2 87 136 199 298 112 161 373 547 582 858
208 311 405 601 437 645 33 44 67 92 77 107 20 33 24 34 46 9z m498 -30 c137
-54 158 -64 158 -73 0 -5 4 -7 9 -4 13 8 71 -26 71 -42 0 -15 -38 -92 -46 -92
-12 0 -340 132 -351 142 -7 6 -13 14 -13 19 0 17 63 79 80 79 10 0 52 -13 92
-29z m-126 -171 c22 -9 25 -15 21 -38 -33 -164 -38 -230 -27 -326 14 -118 56
-242 110 -323 61 -92 63 -93 103 -89 41 4 42 3 26 -25 -6 -12 -17 -18 -25 -15
-8 3 -14 0 -14 -6 0 -7 -11 -8 -32 -3 -18 4 -39 7 -45 8 -7 0 -13 6 -13 14 0
12 -13 17 -33 14 -4 -1 -12 10 -18 23 -7 13 -17 22 -23 20 -13 -5 -63 73 -96
148 -71 162 -80 373 -24 566 16 58 18 59 90 32z m-4706 -10 c29 -29 26 -74 -6
-99 -15 -12 -33 -21 -41 -21 -22 0 -63 47 -63 72 0 61 68 90 110 48z m4886
-103 c-4 -18 -9 -83 -13 -145 -6 -125 4 -195 45 -302 26 -68 44 -153 31 -145
-4 3 -10 -1 -13 -7 -3 -9 -8 -8 -16 5 -9 14 -15 16 -26 6 -11 -9 -14 -8 -14 5
0 9 -4 16 -10 16 -5 0 -7 7 -4 15 4 10 0 15 -11 15 -19 0 -76 117 -96 200 -26
108 -13 332 23 402 8 17 12 16 59 -8 49 -24 51 -27 45 -57z m-4649 -42 c0 -8
-4 -12 -9 -9 -5 3 -6 10 -3 15 9 13 12 11 12 -6z m4173 6 c0 -5 -7 -11 -15
-15 -13 -5 -13 -9 -3 -28 7 -13 17 -26 22 -29 4 -4 3 -10 -3 -13 -6 -4 -11 -3
-11 2 0 5 -9 12 -21 15 -15 4 -19 2 -15 -8 7 -19 -16 -75 -31 -75 -7 0 -13 -6
-13 -14 0 -14 -126 -219 -245 -401 -29 -44 -78 -120 -110 -170 -95 -147 -463
-698 -482 -722 -10 -11 -33 -24 -52 -28 -39 -8 -42 -17 39 105 86 128 242 367
486 743 199 306 341 524 402 613 20 31 52 46 52 25z m-4014 -84 c-94 -199
-337 -319 -553 -274 -39 9 -96 27 -126 42 -75 35 -188 146 -180 176 2 5 -2 9
-8 9 -5 0 -8 4 -5 9 4 5 0 12 -6 14 -8 4 -9 6 -2 6 7 1 19 -10 28 -24 37 -56
114 -119 196 -159 84 -41 86 -41 196 -41 110 0 111 0 198 43 94 47 191 132
217 190 8 18 19 30 27 27 9 -3 10 3 6 23 -6 26 -6 26 11 10 17 -16 17 -19 1
-51z m-878 -2 c-3 -3 -9 2 -12 12 -6 14 -5 15 5 6 7 -7 10 -15 7 -18z m5612
-15 c26 0 67 7 90 15 23 8 44 15 46 15 10 0 -38 -79 -71 -117 -46 -54 -196
-149 -206 -131 -21 38 -35 188 -23 235 l6 21 56 -19 c30 -10 76 -19 102 -19z
m-731 -15 c-5 -24 -60 -135 -69 -140 -6 -4 -8 -11 -5 -16 4 -5 0 -16 -8 -23
-16 -16 -147 -231 -147 -241 0 -3 -18 -30 -40 -60 -22 -29 -50 -73 -62 -96
-12 -24 -30 -51 -40 -61 -10 -10 -18 -24 -18 -31 0 -8 -9 -22 -20 -32 -11 -10
-20 -23 -20 -30 0 -7 -9 -20 -20 -30 -11 -10 -20 -25 -20 -34 0 -9 -15 -33
-33 -53 -27 -32 -60 -79 -102 -146 -5 -9 -16 -22 -22 -30 -7 -7 -13 -20 -13
-28 0 -8 -10 -23 -23 -34 -13 -11 -34 -42 -48 -70 -13 -27 -32 -51 -43 -54
-12 -3 -16 -10 -13 -20 4 -9 2 -16 -4 -16 -5 0 -12 -7 -15 -15 -9 -23 -69 -85
-82 -85 -19 0 -1 30 187 317 308 469 397 606 506 783 59 96 111 177 114 180 3
3 15 22 25 43 11 21 23 36 28 35 5 -2 8 -8 7 -13z m-3944 -139 c-40 -84 -167
-180 -307 -232 -97 -36 -252 -44 -348 -19 -69 18 -185 74 -216 104 -34 33 -52
59 -47 65 4 3 -5 6 -18 7 -13 0 -18 3 -11 6 10 4 10 8 0 21 -15 20 -13 18 70
-46 97 -76 208 -112 349 -113 174 -2 305 51 452 181 47 42 87 73 89 69 2 -5
-4 -24 -13 -43z m-985 0 c14 -18 14 -18 -7 -6 -12 8 -19 18 -16 23 3 4 6 7 7
5 1 -2 8 -12 16 -22z m1483 14 c10 -1 17 -9 17 -22 0 -14 -5 -18 -15 -14 -9 3
-18 -1 -22 -10 -3 -8 -11 -13 -18 -10 -8 3 -16 -1 -19 -9 -10 -27 -258 -85
-363 -85 l-32 0 61 81 61 80 156 -5 c86 -2 164 -5 174 -6z m47 -10 c0 -5 -5
-10 -11 -10 -5 0 -7 5 -4 10 3 6 8 10 11 10 2 0 4 -4 4 -10z m3490 -144 c0
-38 -161 -310 -442 -745 -66 -102 -125 -194 -131 -203 -10 -15 -48 -38 -64
-38 -18 0 -12 11 495 810 79 124 120 180 132 180 6 0 10 -2 10 -4z m-1040 -67
c0 -5 -4 -9 -10 -9 -5 0 -10 7 -10 16 0 8 5 12 10 9 6 -3 10 -10 10 -16z
m-1555 -37 c-8 -2 -15 -10 -15 -18 0 -8 -4 -14 -10 -14 -5 0 -10 7 -10 15 0
24 4 30 17 27 7 -2 13 3 13 10 0 9 3 9 10 -2 7 -11 5 -16 -5 -18z m1565 8 c0
-5 -4 -10 -9 -10 -6 0 -13 5 -16 10 -3 6 1 10 9 10 9 0 16 -4 16 -10z m-3110
-50 c0 -5 -8 -10 -17 -10 -15 0 -16 2 -3 10 19 12 20 12 20 0z m4232 -72 c-7
-7 -12 -19 -11 -27 0 -11 2 -12 6 -4 3 10 8 10 19 -1 7 -8 19 -16 26 -19 7 -2
10 -8 6 -12 -4 -4 -14 -3 -22 4 -8 7 -16 8 -18 4 -3 -4 -3 -3 -2 4 2 7 -3 10
-12 6 -11 -4 -12 -9 -3 -19 6 -8 15 -12 19 -9 5 3 11 1 15 -4 10 -18 -32 -84
-86 -136 -29 -27 -49 -44 -44 -36 5 10 4 12 -3 7 -7 -4 -12 -14 -12 -22 0 -8
-10 -14 -24 -14 -13 0 -26 -7 -30 -15 -5 -13 -36 -22 -36 -10 0 5 45 75 62 96
7 9 22 33 33 55 12 22 28 38 37 38 10 -1 14 5 11 16 -5 18 66 124 76 115 2 -3
-1 -11 -7 -17z m-422 -2 c0 -3 -4 -8 -10 -11 -5 -3 -10 -1 -10 4 0 6 5 11 10
11 6 0 10 -2 10 -4z m-2040 -47 c0 -5 -7 -9 -15 -9 -8 0 -15 7 -15 15 0 9 6
12 15 9 8 -4 15 -10 15 -15z m-54 2 c-3 -5 1 -11 9 -15 8 -3 15 -10 15 -17 0
-6 -7 -9 -14 -6 -10 4 -13 1 -9 -9 3 -8 -1 -14 -11 -14 -19 0 -23 56 -3 63 18
8 19 8 13 -2z"/>
<path d="M5750 9196 c0 -2 7 -6 15 -10 8 -3 15 -1 15 4 0 6 -7 10 -15 10 -8 0
-15 -2 -15 -4z"/>
<path d="M5747 9103 c-4 -3 -7 -13 -7 -22 1 -13 3 -13 11 2 11 19 8 33 -4 20z"/>
<path d="M5780 9069 c0 -5 5 -7 10 -4 6 3 10 8 10 11 0 2 -4 4 -10 4 -5 0 -10
-5 -10 -11z"/>
<path d="M5730 8970 c0 -5 5 -10 10 -10 6 0 10 5 10 10 0 6 -4 10 -10 10 -5 0
-10 -4 -10 -10z"/>
<path d="M4842 8878 c-17 -17 -15 -55 3 -62 36 -13 69 31 45 59 -15 18 -32 19
-48 3z"/>
<path d="M4640 8550 c0 -5 5 -10 10 -10 6 0 10 5 10 10 0 6 -4 10 -10 10 -5 0
-10 -4 -10 -10z"/>
<path d="M4640 8510 c0 -5 5 -10 10 -10 6 0 10 5 10 10 0 6 -4 10 -10 10 -5 0
-10 -4 -10 -10z"/>
<path d="M4715 8510 c-8 -13 5 -13 25 0 13 8 13 10 -2 10 -9 0 -20 -4 -23 -10z"/>
<path d="M4634 8471 c3 -5 15 -7 26 -4 28 7 25 13 -6 13 -14 0 -23 -4 -20 -9z"/>
<path d="M4565 8440 c-3 -5 1 -10 9 -10 9 0 16 5 16 10 0 6 -4 10 -9 10 -6 0
-13 -4 -16 -10z"/>
<path d="M4635 8429 c-4 -6 -5 -12 -2 -15 7 -7 37 7 37 17 0 13 -27 11 -35 -2z"/>
<path d="M4573 8385 c0 -14 5 -25 11 -25 6 0 11 11 11 25 0 14 -5 25 -11 25
-6 0 -11 -11 -11 -25z"/>
<path d="M4580 8341 c0 -6 -6 -11 -14 -11 -8 0 -17 -4 -21 -9 -3 -5 7 -8 22
-7 29 3 41 20 24 31 -6 3 -11 1 -11 -4z"/>
<path d="M5467 9213 c-11 -11 -8 -33 5 -33 6 0 8 3 5 7 -4 3 -2 12 4 20 11 13
-2 19 -14 6z"/>
<path d="M6136 8855 c-3 -9 0 -15 8 -15 7 0 13 7 13 15 0 8 -4 15 -8 15 -4 0
-9 -7 -13 -15z"/>
<path d="M6740 8418 c0 -5 7 -8 16 -8 12 0 15 -7 10 -27 -3 -16 -3 -22 0 -15
8 18 26 15 23 -5 -1 -10 25 -46 59 -81 l60 -63 11 53 c6 29 11 62 11 73 0 11
1 34 3 51 l4 31 -99 -1 c-54 0 -98 -4 -98 -8z m142 -36 c-7 -2 -12 -10 -12
-18 0 -9 4 -13 9 -9 5 3 12 1 15 -4 3 -5 -1 -11 -9 -15 -20 -7 -31 38 -13 57
8 10 14 11 17 4 2 -6 -1 -13 -7 -15z m43 -2 c-3 -5 -11 -10 -16 -10 -6 0 -7 5
-4 10 3 6 11 10 16 10 6 0 7 -4 4 -10z m-101 -25 c-6 -16 -24 -21 -24 -7 0 11
11 22 21 22 5 0 6 -7 3 -15z m26 -24 c0 -6 -4 -13 -10 -16 -5 -3 -10 1 -10 9
0 9 5 16 10 16 6 0 10 -4 10 -9z m70 -11 c0 -5 -2 -10 -4 -10 -3 0 -8 5 -11
10 -3 6 -1 10 4 10 6 0 11 -4 11 -10z m-30 -38 c0 -15 -2 -15 -10 -2 -13 20
-13 33 0 25 6 -3 10 -14 10 -23z"/>
<path d="M5495 8959 c-4 -6 -5 -12 -2 -15 2 -3 7 2 10 11 7 17 1 20 -8 4z"/>
<path d="M5215 8910 c3 -5 8 -10 11 -10 2 0 4 5 4 10 0 6 -5 10 -11 10 -5 0
-7 -4 -4 -10z"/>
<path d="M3815 8544 c-54 -58 -16 -144 63 -144 50 0 82 32 82 81 -1 79 -93
119 -145 63z"/>
<path d="M5196 8285 c-3 -8 -1 -15 4 -15 6 0 10 7 10 15 0 8 -2 15 -4 15 -2 0
-6 -7 -10 -15z"/>
<path d="M5260 8290 c0 -5 -6 -10 -14 -10 -7 0 -20 -8 -27 -17 -11 -15 -11
-16 1 -5 8 6 18 12 23 12 4 0 5 -6 2 -12 -4 -7 1 -4 9 6 16 20 21 36 11 36 -3
0 -5 -4 -5 -10z"/>
<path d="M5262 8249 c-7 -11 -11 -23 -9 -25 7 -7 29 24 25 36 -2 6 -9 1 -16
-11z"/>
<path d="M5805 8070 c-3 -5 -1 -10 4 -10 6 0 11 5 11 10 0 6 -2 10 -4 10 -3 0
-8 -4 -11 -10z"/>
<path d="M5758 8053 c7 -3 16 -2 19 1 4 3 -2 6 -13 5 -11 0 -14 -3 -6 -6z"/>
<path d="M5810 8030 c0 -5 5 -10 10 -10 6 0 10 5 10 10 0 6 -4 10 -10 10 -5 0
-10 -4 -10 -10z"/>
<path d="M5485 8210 c4 -6 11 -8 16 -5 14 9 11 15 -7 15 -8 0 -12 -5 -9 -10z"/>
<path d="M5520 8190 c0 -5 7 -7 15 -4 8 4 15 8 15 10 0 2 -7 4 -15 4 -8 0 -15
-4 -15 -10z"/>
<path d="M5475 8170 c3 -5 10 -10 16 -10 5 0 9 5 9 10 0 6 -7 10 -16 10 -8 0
-12 -4 -9 -10z"/>
<path d="M5519 8149 c-24 -14 4 -27 29 -14 22 12 22 13 4 17 -11 3 -26 2 -33
-3z"/>
<path d="M4387 8303 c-4 -3 -7 -11 -7 -17 0 -6 5 -5 12 2 6 6 9 14 7 17 -3 3
-9 2 -12 -2z"/>
<path d="M3207 8260 c-3 -11 -3 -20 -1 -20 2 0 8 9 14 20 6 11 7 20 2 20 -6 0
-12 -9 -15 -20z"/>
<path d="M2803 8229 c-30 -11 -31 -54 -2 -69 25 -14 72 12 67 37 -5 25 -40 42
-65 32z"/>
<path d="M2570 8114 c-11 -12 -10 -18 3 -32 16 -15 18 -15 34 0 13 14 14 20 3
32 -7 9 -16 16 -20 16 -4 0 -13 -7 -20 -16z"/>
<path d="M2545 7960 c-27 -7 -27 -8 -5 -8 14 0 36 4 50 8 20 6 21 8 5 8 -11 0
-33 -4 -50 -8z"/>
<path d="M2230 7720 c-13 -8 -12 -10 3 -10 9 0 17 5 17 10 0 12 -1 12 -20 0z"/>
<path d="M2210 7660 c0 -5 5 -10 10 -10 6 0 10 5 10 10 0 6 -4 10 -10 10 -5 0
-10 -4 -10 -10z"/>
<path d="M2198 7608 c-15 -15 -16 -18 -3 -18 9 0 18 7 22 15 8 23 0 24 -19 3z"/>
<path d="M2180 7545 c-10 -12 -10 -15 4 -15 9 0 16 7 16 15 0 8 -2 15 -4 15
-2 0 -9 -7 -16 -15z"/>
<path d="M2165 7500 c-3 -6 1 -7 9 -4 18 7 21 14 7 14 -6 0 -13 -4 -16 -10z"/>
<path d="M2160 7480 c-12 -8 -11 -10 8 -10 12 0 22 5 22 10 0 13 -11 13 -30 0z"/>
<path d="M2165 7450 c-3 -5 -3 -15 1 -22 4 -6 -1 -17 -11 -25 -18 -12 -18 -13
3 -13 15 0 22 6 22 19 0 11 3 26 6 35 7 17 -11 22 -21 6z"/>
<path d="M5990 7976 c0 -8 4 -17 8 -20 4 -2 8 4 8 15 0 10 -4 19 -8 19 -4 0
-8 -6 -8 -14z"/>
<path d="M6040 7960 c0 -5 4 -10 9 -10 6 0 13 5 16 10 3 6 -1 10 -9 10 -9 0
-16 -4 -16 -10z"/>
<path d="M6050 7930 c-8 -5 -12 -12 -9 -15 4 -3 12 1 19 10 14 17 11 19 -10 5z"/>
<path d="M6075 7880 c-3 -5 1 -10 10 -10 9 0 13 5 10 10 -3 6 -8 10 -10 10 -2
0 -7 -4 -10 -10z"/>
<path d="M6088 7833 c6 -2 18 -2 25 0 6 3 1 5 -13 5 -14 0 -19 -2 -12 -5z"/>
<path d="M3206 8004 c-4 -10 -1 -14 6 -12 15 5 23 28 10 28 -5 0 -13 -7 -16
-16z"/>
<path d="M3341 7980 c0 -33 1 -34 11 -12 8 17 8 26 0 34 -9 9 -12 4 -11 -22z"/>
<path d="M2920 7986 c0 -15 55 -66 71 -66 20 0 7 40 -20 59 -34 24 -51 27 -51
7z"/>
<path d="M3111 7954 c0 -11 3 -14 6 -6 3 7 2 16 -1 19 -3 4 -6 -2 -5 -13z"/>
<path d="M3175 7960 c-3 -5 -2 -10 4 -10 5 0 13 5 16 10 3 6 2 10 -4 10 -5 0
-13 -4 -16 -10z"/>
<path d="M2825 7949 c-7 -10 34 -49 51 -49 19 0 27 19 15 34 -14 16 -59 27
-66 15z"/>
<path d="M2743 7884 c-8 -21 13 -34 55 -34 40 0 41 15 2 35 -37 19 -49 19 -57
-1z"/>
<path d="M2660 7816 c0 -17 18 -31 47 -39 33 -7 40 13 13 35 -26 21 -60 24
-60 4z"/>
<path d="M2590 7750 c-13 -8 -12 -12 6 -30 23 -24 54 -18 54 10 0 26 -33 37
-60 20z"/>
<path d="M2670 7690 c0 -5 5 -10 11 -10 5 0 7 5 4 10 -3 6 -8 10 -11 10 -2 0
-4 -4 -4 -10z"/>
<path d="M2523 7655 c-7 -20 14 -36 42 -33 12 2 20 11 20 23 0 26 -52 35 -62
10z"/>
<path d="M2467 7573 c-14 -13 -6 -42 12 -48 28 -8 71 4 65 20 -3 7 -16 17 -30
24 -29 13 -38 14 -47 4z"/>
<path d="M2407 7467 c-8 -22 13 -37 50 -37 22 0 33 5 33 14 0 18 -6 22 -46 30
-23 5 -33 3 -37 -7z"/>
<path d="M2366 7353 c-11 -27 8 -36 48 -23 39 12 46 24 20 34 -29 11 -62 6
-68 -11z"/>
<path d="M2340 7255 c-19 -22 -2 -37 33 -29 44 9 50 14 36 30 -15 18 -53 18
-69 -1z"/>
<path d="M6275 7810 c3 -5 8 -10 11 -10 2 0 4 5 4 10 0 6 -5 10 -11 10 -5 0
-7 -4 -4 -10z"/>
<path d="M6288 7783 c7 -3 16 -2 19 1 4 3 -2 6 -13 5 -11 0 -14 -3 -6 -6z"/>
<path d="M6303 7753 c20 -5 22 -19 5 -26 -8 -3 -6 -6 5 -6 11 -1 17 6 17 19 0
14 -6 20 -22 19 -17 -1 -19 -2 -5 -6z"/>
<path d="M6312 7680 c7 -11 16 -20 19 -20 4 0 5 9 2 20 -3 11 -12 20 -19 20
-12 0 -12 -4 -2 -20z"/>
<path d="M6350 7669 c0 -5 5 -7 10 -4 6 3 10 8 10 11 0 2 -4 4 -10 4 -5 0 -10
-5 -10 -11z"/>
<path d="M5628 7625 c-18 -10 -29 -26 -33 -49 -18 -93 97 -142 146 -63 26 44
24 64 -10 98 -32 32 -62 36 -103 14z"/>
<path d="M6575 7470 c3 -5 10 -10 16 -10 5 0 9 5 9 10 0 6 -7 10 -16 10 -8 0
-12 -4 -9 -10z"/>
<path d="M6625 7470 c-3 -5 1 -10 9 -10 9 0 16 5 16 10 0 6 -4 10 -9 10 -6 0
-13 -4 -16 -10z"/>
<path d="M6630 7372 c0 -5 9 -12 21 -15 13 -3 19 -1 16 6 -5 15 -37 22 -37 9z"/>
<path d="M4580 7581 c-15 -28 -12 -46 8 -64 35 -32 82 -15 82 29 0 48 -68 74
-90 35z"/>
<path d="M4801 7449 c-12 -13 -21 -30 -21 -39 0 -44 80 -68 100 -31 22 42 10
71 -37 85 -15 5 -27 0 -42 -15z"/>
<path d="M4966 7351 c-25 -28 -17 -64 18 -76 24 -8 31 -6 47 13 19 24 16 49
-9 70 -22 17 -36 15 -56 -7z"/>
<path d="M5174 7256 c-7 -19 14 -58 29 -53 17 5 21 35 7 52 -16 19 -29 19 -36
1z"/>
<path d="M6820 7330 c0 -5 5 -10 10 -10 6 0 10 5 10 10 0 6 -4 10 -10 10 -5 0
-10 -4 -10 -10z"/>
<path d="M6865 7310 c-3 -5 1 -10 10 -10 9 0 13 5 10 10 -3 6 -8 10 -10 10 -2
0 -7 -4 -10 -10z"/>
<path d="M6830 7300 c0 -5 5 -10 10 -10 6 0 10 5 10 10 0 6 -4 10 -10 10 -5 0
-10 -4 -10 -10z"/>
<path d="M6830 7270 c0 -5 7 -10 16 -10 8 0 12 5 9 10 -3 6 -10 10 -16 10 -5
0 -9 -4 -9 -10z"/>
<path d="M6875 7270 c3 -5 8 -10 11 -10 2 0 4 5 4 10 0 6 -5 10 -11 10 -5 0
-7 -4 -4 -10z"/>
<path d="M6830 7240 c0 -5 5 -10 10 -10 6 0 10 5 10 10 0 6 -4 10 -10 10 -5 0
-10 -4 -10 -10z"/>
<path d="M3421 7298 c-1 -23 3 -28 22 -27 15 1 17 3 5 6 -9 2 -19 14 -21 26
-4 18 -5 17 -6 -5z"/>
<path d="M3391 7274 c0 -11 3 -14 6 -6 3 7 2 16 -1 19 -3 4 -6 -2 -5 -13z"/>
<path d="M3570 7269 c0 -5 5 -7 10 -4 6 3 10 8 10 11 0 2 -4 4 -10 4 -5 0 -10
-5 -10 -11z"/>
<path d="M3170 7221 c0 -6 4 -13 10 -16 6 -3 7 1 4 9 -7 18 -14 21 -14 7z"/>
<path d="M3151 7193 c7 -12 15 -20 18 -17 3 2 -3 12 -13 22 -17 16 -18 16 -5
-5z"/>
<path d="M3110 7176 c0 -2 9 -6 20 -9 11 -3 18 -1 14 4 -5 9 -34 13 -34 5z"/>
<path d="M3195 7160 c3 -5 8 -10 11 -10 2 0 4 5 4 10 0 6 -5 10 -11 10 -5 0
-7 -4 -4 -10z"/>
<path d="M3110 7156 c0 -2 7 -9 15 -16 9 -7 15 -8 15 -2 0 5 -7 12 -15 16 -8
3 -15 4 -15 2z"/>
<path d="M3167 7149 c7 -7 15 -10 18 -7 3 3 -2 9 -12 12 -14 6 -15 5 -6 -5z"/>
<path d="M3100 7136 c0 -2 8 -10 18 -17 15 -13 16 -12 3 4 -13 16 -21 21 -21
13z"/>
<path d="M7205 7120 c3 -5 8 -10 11 -10 2 0 4 5 4 10 0 6 -5 10 -11 10 -5 0
-7 -4 -4 -10z"/>
<path d="M2252 5830 c7 -10 14 -18 15 -16 6 6 -9 36 -18 36 -5 0 -4 -9 3 -20z"/>
<path d="M9028 6693 c7 -3 16 -2 19 1 4 3 -2 6 -13 5 -11 0 -14 -3 -6 -6z"/>
<path d="M3916 5948 c-3 -7 -7 -82 -10 -166 -4 -107 -10 -161 -21 -182 -20
-38 -19 -52 6 -84 53 -68 141 4 104 85 -10 23 -17 86 -22 194 -8 156 -9 160
-31 163 -12 2 -24 -3 -26 -10z"/>
<path d="M3331 5854 c-34 -43 -23 -82 28 -103 37 -16 65 -3 79 36 25 73 -60
126 -107 67z"/>
<path d="M3620 5860 c-41 -41 -10 -110 48 -110 36 0 62 28 62 67 0 57 -69 84
-110 43z"/>
<path d="M3513 5608 c-6 -7 -20 -44 -32 -83 -12 -38 -69 -214 -126 -390 -57
-176 -107 -331 -110 -345 -4 -18 0 -32 15 -48 20 -22 25 -22 258 -22 310 0
308 -1 256 157 -38 115 -234 734 -234 739 0 9 -18 3 -27 -8z"/>
<path d="M3495 4465 c-28 -27 -30 -37 -14 -68 23 -43 66 -50 99 -17 28 28 25
64 -6 89 -34 27 -50 26 -79 -4z"/>
<path d="M5062 6698 c-7 -7 -12 -22 -12 -35 0 -27 42 -42 65 -23 28 23 11 70
-25 70 -9 0 -21 -5 -28 -12z"/>
<path d="M8870 6624 c0 -3 7 -12 15 -20 8 -8 12 -22 9 -32 -5 -15 -4 -15 6 1
14 21 4 57 -16 57 -8 0 -14 -3 -14 -6z"/>
<path d="M9152 6363 c2 -20 8 -28 23 -28 31 0 28 49 -3 53 -20 3 -23 0 -20
-25z"/>
<path d="M8846 6355 c-3 -8 -1 -15 3 -15 5 0 11 7 15 15 3 8 1 15 -3 15 -5 0
-11 -7 -15 -15z"/>
<path d="M8817 6329 c7 -7 15 -10 18 -7 3 3 -2 9 -12 12 -14 6 -15 5 -6 -5z"/>
<path d="M8875 6250 c-9 -15 3 -30 24 -30 23 0 31 9 24 26 -6 16 -39 19 -48 4z"/>
<path d="M1366 5897 c-12 -9 -17 -23 -14 -47 2 -28 9 -37 32 -45 24 -8 31 -6
47 14 21 26 18 58 -9 79 -20 15 -34 15 -56 -1z"/>
<path d="M1607 5553 c-18 -30 -16 -70 3 -91 27 -29 51 -28 80 3 23 24 23 26 7
60 -14 30 -22 35 -51 35 -19 0 -37 -3 -39 -7z"/>
<path d="M1765 5430 c-10 -16 3 -60 18 -59 25 1 46 14 39 24 -19 26 -50 46
-57 35z"/>
<path d="M1859 5403 c7 -13 5 -23 -6 -36 -15 -16 -15 -17 6 -14 34 5 44 28 21
49 -24 23 -34 23 -21 1z"/>
<path d="M1586 5264 c-4 -9 -4 -19 -2 -21 8 -8 26 8 26 23 0 19 -16 18 -24 -2z"/>
<path d="M1650 5181 c38 -33 50 -38 50 -18 0 11 -20 22 -75 44 -5 3 6 -9 25
-26z"/>
<path d="M9040 6061 c0 -21 27 -41 54 -41 36 0 12 41 -31 54 -19 6 -23 3 -23
-13z"/>
<path d="M8997 5473 c-4 -3 -7 -11 -7 -17 0 -6 5 -5 12 2 6 6 9 14 7 17 -3 3
-9 2 -12 -2z"/>
<path d="M8964 5451 c0 -11 4 -17 8 -15 4 3 8 12 8 20 0 8 -4 14 -8 14 -4 0
-8 -9 -8 -19z"/>
<path d="M8895 5400 c3 -5 8 -10 11 -10 2 0 4 5 4 10 0 6 -5 10 -11 10 -5 0
-7 -4 -4 -10z"/>
<path d="M9242 5200 c-17 -7 -22 -17 -20 -32 3 -21 8 -23 78 -25 78 -2 100 7
100 38 0 15 -7 19 -32 19 -18 0 -49 2 -68 5 -19 3 -45 0 -58 -5z"/>
<path d="M2285 4194 c-19 -20 -16 -63 6 -77 23 -14 67 0 74 24 8 26 -19 69
-45 69 -10 0 -26 -7 -35 -16z"/>
<path d="M2812 3303 c2 -9 8 -18 15 -20 7 -3 9 3 6 16 -6 25 -26 28 -21 4z"/>
<path d="M2860 3301 c0 -6 4 -13 10 -16 6 -3 7 1 4 9 -7 18 -14 21 -14 7z"/>
<path d="M2975 3130 c3 -5 10 -10 16 -10 5 0 9 5 9 10 0 6 -7 10 -16 10 -8 0
-12 -4 -9 -10z"/>
<path d="M7745 2129 c-4 -6 -5 -12 -2 -15 2 -3 7 2 10 11 7 17 1 20 -8 4z"/>
<path d="M3242 8888 c-7 -7 -12 -21 -12 -33 0 -12 5 -26 12 -33 29 -29 78 -7
78 35 0 35 -53 56 -78 31z"/>
<path d="M3134 8743 c-20 -15 -36 -55 -30 -79 4 -13 20 -31 37 -39 28 -15 33
-15 55 0 14 9 30 27 36 41 10 20 8 29 -9 52 -20 27 -67 40 -89 25z"/>
<path d="M2885 8682 c-11 -2 -30 -13 -42 -25 -49 -44 -12 -127 56 -127 24 0
44 7 54 18 53 59 7 149 -68 134z"/>
<path d="M7757 8540 c-34 -27 -43 -70 -23 -109 40 -76 139 -67 166 13 28 85
-72 152 -143 96z"/>
<path d="M7577 8452 c-24 -26 -53 -160 -38 -175 27 -27 111 77 111 139 0 52
-41 72 -73 36z"/>
<path d="M8042 8390 c-52 -21 -53 -98 -2 -125 50 -26 100 8 100 68 0 42 -54
74 -98 57z"/>
<path d="M8205 8250 c-40 -44 -6 -110 56 -110 32 0 59 31 59 67 0 54 -78 84
-115 43z"/>
<path d="M8501 7893 c-34 -29 -37 -75 -9 -108 49 -57 132 -25 132 51 0 64 -73
98 -123 57z"/>
<path d="M8941 7426 c-32 -34 -39 -101 -16 -150 20 -41 78 -86 111 -86 20 0
54 28 54 45 0 4 -21 30 -46 57 -47 50 -52 71 -33 138 7 27 -44 24 -70 -4z"/>
<path d="M1303 4594 c-3 -8 2 -23 11 -32 15 -15 17 -15 32 0 21 21 11 48 -16
48 -11 0 -23 -7 -27 -16z m35 -13 c3 -8 -1 -12 -9 -9 -7 2 -15 10 -17 17 -3 8
1 12 9 9 7 -2 15 -10 17 -17z"/>
<path d="M1390 4546 c0 -8 5 -18 10 -21 6 -3 10 3 10 14 0 12 -4 21 -10 21 -5
0 -10 -6 -10 -14z"/>
<path d="M1441 4524 c0 -11 3 -14 6 -6 3 7 2 16 -1 19 -3 4 -6 -2 -5 -13z"/>
<path d="M1491 4514 c0 -11 3 -14 6 -6 3 7 2 16 -1 19 -3 4 -6 -2 -5 -13z"/>
<path d="M1605 4490 c3 -5 8 -10 11 -10 2 0 4 5 4 10 0 6 -5 10 -11 10 -5 0
-7 -4 -4 -10z"/>
<path d="M9432 4393 c-20 -21 -66 -69 -101 -108 -82 -89 -168 -165 -251 -220
-145 -96 -370 -191 -550 -231 -117 -26 -343 -24 -446 4 -217 58 -388 184 -518
382 -26 39 -51 70 -56 70 -22 0 -51 -41 -45 -63 15 -52 156 -229 247 -312 148
-134 475 -308 545 -290 14 3 33 -1 46 -10 28 -20 43 -19 66 4 19 19 20 19 57
0 96 -48 217 5 285 127 28 50 34 54 97 74 155 51 364 160 512 268 189 139 256
220 230 282 -10 23 -23 34 -73 58 -4 2 -24 -14 -45 -35z"/>
<path d="M7402 4398 c-29 -29 -7 -78 34 -78 46 0 67 58 30 82 -17 12 -51 9
-64 -4z"/>
<path d="M9340 3990 c-85 -77 -173 -138 -263 -181 -45 -22 -93 -45 -107 -52
-33 -16 -37 -50 -10 -77 29 -29 48 -24 204 55 71 36 131 63 133 61 8 -8 -74
-112 -118 -150 -50 -43 -116 -76 -150 -76 -43 0 -88 37 -116 95 -30 61 -61 74
-80 33 -18 -40 30 -135 90 -180 98 -75 205 -54 336 68 130 120 243 377 192
438 -23 27 -54 17 -111 -34z"/>
<path d="M8730 3661 c-22 -42 1 -78 44 -67 31 8 40 33 21 62 -19 29 -51 31
-65 5z"/>
<path d="M8972 3348 c-27 -27 -6 -68 35 -68 29 0 48 33 33 60 -12 22 -49 27
-68 8z"/>
<path d="M9090 3341 c-15 -29 3 -61 34 -61 30 0 48 22 44 52 -4 32 -62 39 -78
9z"/>
<path d="M8802 2674 c-18 -12 -22 -25 -22 -67 0 -58 5 -69 37 -85 23 -13 48
-8 76 16 23 20 24 114 1 136 -20 20 -63 20 -92 0z"/>
<path d="M8602 2524 c-18 -12 -22 -25 -22 -64 0 -41 4 -52 26 -69 35 -27 59
-26 89 4 32 31 34 96 5 125 -24 24 -67 26 -98 4z"/>
<path d="M4205 2251 c-3 -5 -1 -12 5 -16 5 -3 10 1 10 9 0 18 -6 21 -15 7z"/>
<path d="M4150 2229 c0 -5 5 -7 10 -4 6 3 10 8 10 11 0 2 -4 4 -10 4 -5 0 -10
-5 -10 -11z"/>
<path d="M1459 2141 c-49 -4 -93 -12 -103 -20 -19 -16 -21 -45 -3 -59 6 -5 92
-12 192 -14 154 -4 195 -9 283 -32 136 -35 157 -44 447 -188 379 -187 531
-230 815 -232 203 -1 220 2 220 49 0 18 -5 37 -12 41 -6 4 -91 8 -187 9 -296
3 -420 39 -806 230 -137 68 -290 137 -339 154 -147 52 -332 74 -507 62z"/>
<path d="M1220 2110 c-15 -29 -3 -59 26 -66 30 -8 54 11 54 40 0 46 -59 64
-80 26z"/>
<path d="M6230 2101 c0 -6 4 -13 10 -16 6 -3 7 1 4 9 -7 18 -14 21 -14 7z"/>
<path d="M4551 2034 c0 -11 3 -14 6 -6 3 7 2 16 -1 19 -3 4 -6 -2 -5 -13z"/>
<path d="M4390 2020 c-8 -5 -10 -10 -5 -10 6 0 17 5 25 10 8 5 11 10 5 10 -5
0 -17 -5 -25 -10z"/>
<path d="M4335 2000 c-3 -5 -1 -10 4 -10 6 0 11 5 11 10 0 6 -2 10 -4 10 -3 0
-8 -4 -11 -10z"/>
<path d="M4300 1979 c0 -5 5 -7 10 -4 6 3 10 8 10 11 0 2 -4 4 -10 4 -5 0 -10
-5 -10 -11z"/>
<path d="M4132 1915 c-242 -99 -485 -172 -679 -206 -50 -8 -73 -17 -73 -26 0
-11 9 -12 38 -7 90 16 388 97 492 134 133 47 311 119 325 132 5 4 17 8 27 8
10 0 18 5 18 10 0 15 -3 14 -148 -45z"/>
<path d="M4380 1672 c-157 -78 -373 -170 -487 -207 -29 -9 -53 -21 -53 -26 0
-14 12 -11 112 25 158 57 471 201 513 236 6 5 14 8 20 8 5 0 11 5 13 11 5 14
14 18 -118 -47z"/>
</g>
</svg>
